<?xml version="1.0" standalone="no"?>
<!DOCTYPE svg PUBLIC "-//W3C//DTD SVG 20010904//EN"
 "http://www.w3.org/TR/2001/REC-SVG-20010904/DTD/svg10.dtd">
<svg version="1.0" xmlns="http://www.w3.org/2000/svg"
 width="225.000000pt" height="225.000000pt" viewBox="0 0 225.000000 225.000000"
 preserveAspectRatio="xMidYMid meet">

<g transform="translate(0.000000,225.000000) scale(0.100000,-0.100000)"
fill="#000000" stroke="none">
<path d="M416 2227 c-24 -36 -46 -106 -46 -146 0 -128 100 -253 221 -276 l35
-6 -32 -64 c-67 -132 -81 -311 -39 -478 33 -126 104 -163 182 -93 98 87 183
95 447 42 222 -45 298 -52 364 -36 77 18 125 58 163 135 24 50 36 64 48 60
125 -48 333 -24 454 52 56 35 44 45 -23 17 -130 -53 -287 -55 -403 -5 -36 16
-47 26 -47 43 0 38 -27 149 -50 211 l-22 57 -40 -35 c-51 -43 -134 -75 -193
-75 -61 0 -57 16 5 23 116 14 226 92 273 195 17 37 22 66 22 137 0 78 -4 97
-27 141 -15 29 -43 68 -61 88 l-34 36 -203 0 -203 0 -37 -39 c-61 -64 -84
-123 -86 -221 -1 -47 -6 -85 -10 -85 -13 0 -24 67 -18 112 l6 42 -58 -14 c-33
-8 -64 -14 -69 -15 -6 0 -11 24 -12 55 -1 35 -11 75 -27 110 l-25 55 -220 0
c-218 0 -221 0 -235 -23z m204 -642 c15 -18 6 -45 -13 -45 -8 0 -20 7 -27 15
-10 12 -10 18 0 30 16 19 24 19 40 0z m85 -30 c0 -22 -31 -33 -47 -17 -17 17
-1 44 24 40 15 -2 23 -10 23 -23z"/>
<path d="M935 2240 c3 -5 8 -10 11 -10 2 0 4 5 4 10 0 6 -5 10 -11 10 -5 0 -7
-4 -4 -10z"/>
<path d="M1101 2226 c-13 -14 -35 -27 -50 -29 -24 -4 -24 -4 4 -5 22 -1 36 7
53 29 28 35 24 38 -7 5z"/>
<path d="M960 2188 c0 -4 14 -8 30 -8 17 0 30 2 30 4 0 2 -13 6 -30 8 -16 3
-30 1 -30 -4z"/>
<path d="M1778 1867 c-14 -44 -14 -55 -2 -77 7 -14 13 -21 14 -17 0 5 -4 16
-9 26 -7 12 -5 30 3 55 10 30 15 34 24 23 19 -22 61 -124 82 -195 10 -37 19
-58 19 -47 1 31 -52 176 -85 234 l-30 51 -16 -53z"/>
<path d="M410 1833 c0 -5 14 -17 31 -27 19 -11 28 -23 25 -32 -15 -37 -16 -47
-2 -24 21 34 21 34 -19 64 -19 15 -35 23 -35 19z"/>
<path d="M380 1753 c-12 -31 -24 -71 -26 -88 -3 -16 8 8 24 55 34 96 35 122 2
33z"/>
<path d="M1790 1759 c0 -4 7 -22 15 -40 8 -19 14 -27 14 -19 0 14 -28 72 -29
59z"/>
<path d="M420 1643 c-7 -26 -14 -93 -15 -148 l-3 -100 8 100 c4 55 13 120 19
144 7 23 10 45 8 47 -2 3 -10 -17 -17 -43z"/>
<path d="M1822 1670 c0 -8 4 -26 8 -40 6 -20 8 -21 8 -5 0 11 -3 29 -8 40 -5
12 -8 14 -8 5z"/>
<path d="M342 1605 c0 -16 2 -22 5 -12 2 9 2 23 0 30 -3 6 -5 -1 -5 -18z"/>
<path d="M1917 1541 c4 -56 2 -75 -8 -82 -11 -7 -10 -9 4 -9 19 0 22 42 7 120
-7 35 -8 29 -3 -29z"/>
<path d="M1842 1570 c0 -19 2 -27 5 -17 2 9 2 25 0 35 -3 9 -5 1 -5 -18z"/>
<path d="M331 1484 c0 -43 4 -99 8 -124 5 -28 6 1 3 75 -5 137 -12 167 -11 49z"/>
<path d="M1852 1500 c0 -14 2 -19 5 -12 2 6 2 18 0 25 -3 6 -5 1 -5 -13z"/>
<path d="M1858 1463 c6 -2 18 -2 25 0 6 3 1 5 -13 5 -14 0 -19 -2 -12 -5z"/>
<path d="M413 1340 c5 -28 11 -49 13 -47 7 6 -8 97 -16 97 -4 0 -3 -23 3 -50z"/>
<path d="M351 1294 c0 -11 3 -14 6 -6 3 7 2 16 -1 19 -3 4 -6 -2 -5 -13z"/>
<path d="M1811 1250 c-6 -22 -27 -71 -46 -108 -20 -37 -26 -57 -16 -44 11 12
34 59 52 102 27 67 37 80 55 80 32 0 36 -12 19 -60 -8 -24 -13 -45 -11 -47 2
-2 12 19 21 48 19 57 13 69 -36 69 -22 0 -28 -7 -38 -40z"/>
<path d="M431 1270 c0 -8 4 -22 9 -30 12 -18 12 -2 0 25 -6 13 -9 15 -9 5z"/>
<path d="M365 1245 c8 -35 46 -127 51 -122 2 2 -10 37 -27 78 -16 40 -27 61
-24 44z"/>
<path d="M451 1215 c0 -5 6 -21 14 -35 8 -14 14 -20 14 -15 0 6 -6 21 -14 35
-8 14 -14 21 -14 15z"/>
<path d="M1815 1087 c-35 -63 -41 -82 -45 -152 l-5 -80 -630 0 -630 0 -3 69
c-2 53 -9 77 -27 105 -14 19 -25 41 -25 48 0 7 -5 13 -10 13 -12 0 0 -27 31
-72 14 -19 19 -44 19 -90 0 -36 5 -69 12 -76 17 -17 1249 -17 1266 0 7 7 12
41 12 84 0 66 3 77 41 143 23 39 40 73 38 75 -2 3 -22 -28 -44 -67z"/>
<path d="M495 1120 c9 -16 18 -30 21 -30 2 0 -2 14 -11 30 -9 17 -18 30 -21
30 -2 0 2 -13 11 -30z"/>
<path d="M529 1067 c4 -4 275 -6 602 -5 l594 3 -602 5 c-331 3 -599 2 -594 -3z"/>
<path d="M787 1023 c-4 -3 -7 -26 -7 -50 0 -55 -18 -56 -23 0 l-4 42 -1 -46
c-2 -39 1 -48 18 -52 18 -5 20 0 20 48 0 33 5 55 13 58 6 3 7 6 1 6 -6 1 -14
-2 -17 -6z"/>
<path d="M857 1019 c7 -7 15 -10 18 -7 3 3 -2 9 -12 12 -14 6 -15 5 -6 -5z"/>
<path d="M903 1023 c9 -2 23 -2 30 0 6 3 -1 5 -18 5 -16 0 -22 -2 -12 -5z"/>
<path d="M1167 1012 c-20 -22 -23 -102 -5 -120 7 -7 21 -12 33 -11 17 1 16 2
-5 8 -22 6 -25 13 -28 58 -3 44 0 53 20 67 12 9 18 16 12 16 -6 0 -18 -8 -27
-18z"/>
<path d="M1244 1018 c-4 -6 -3 -8 4 -5 26 17 42 -5 42 -59 0 -61 -16 -77 -54
-54 -19 12 -20 12 -7 -3 14 -17 74 -19 99 -3 7 4 19 3 27 -4 8 -6 18 -9 23 -6
5 3 23 1 41 -4 17 -5 29 -5 26 0 -3 5 -1 11 5 15 5 3 9 34 8 68 l-1 62 -6 -65
c-6 -61 -7 -65 -31 -65 -23 0 -25 4 -31 60 l-6 60 -1 -62 c-1 -35 -6 -63 -12
-63 -5 0 -10 10 -10 23 0 18 -2 19 -10 7 -9 -13 -11 -13 -20 0 -8 12 -10 11
-10 -7 0 -13 -4 -23 -10 -23 -6 0 -10 27 -10 60 0 48 -4 61 -19 70 -25 13 -28
13 -37 -2z"/>
<path d="M1494 1015 c-3 -8 -4 -20 -1 -27 3 -7 6 -3 6 9 1 12 7 24 14 26 9 4
9 6 -1 6 -7 1 -15 -6 -18 -14z"/>
<path d="M1668 1023 c6 -2 18 -2 25 0 6 3 1 5 -13 5 -14 0 -19 -2 -12 -5z"/>
<path d="M554 950 c1 -61 3 -65 25 -68 13 -2 27 0 32 5 6 6 -2 8 -20 5 l-30
-4 -4 63 -3 64 0 -65z"/>
<path d="M820 1009 c0 -5 5 -7 10 -4 6 3 10 8 10 11 0 2 -4 4 -10 4 -5 0 -10
-5 -10 -11z"/>
<path d="M1000 1009 c0 -5 5 -7 10 -4 6 3 10 8 10 11 0 2 -4 4 -10 4 -5 0 -10
-5 -10 -11z"/>
<path d="M1060 1000 c5 -10 10 -21 10 -24 0 -12 -28 -6 -33 7 -3 6 -6 -4 -6
-23 -1 -29 3 -36 19 -36 11 0 20 6 20 12 0 6 3 25 6 41 4 22 2 32 -10 36 -14
5 -15 3 -6 -13z m0 -50 c0 -5 -4 -10 -10 -10 -5 0 -10 5 -10 10 0 6 5 10 10
10 6 0 10 -4 10 -10z"/>
<path d="M1216 1007 c3 -10 9 -15 12 -12 3 3 0 11 -7 18 -10 9 -11 8 -5 -6z"/>
<path d="M1342 1008 c-14 -14 -16 -28 -3 -28 5 0 11 9 14 20 6 23 5 24 -11 8z"/>
<path d="M1571 1008 c1 -7 5 -24 9 -38 8 -24 8 -24 9 7 1 17 -3 35 -9 38 -5 3
-10 0 -9 -7z"/>
<path d="M1710 1005 c0 -8 -7 -15 -15 -15 -8 0 -15 -5 -15 -10 0 -7 6 -7 20 0
17 9 29 40 15 40 -3 0 -5 -7 -5 -15z"/>
<path d="M720 955 c-5 -57 -6 -60 -35 -66 -16 -3 6 -5 50 -5 44 0 61 1 38 3
l-42 4 -3 62 -4 62 -4 -60z"/>
<path d="M1532 985 c0 -16 2 -22 5 -12 2 9 2 23 0 30 -3 6 -5 -1 -5 -18z"/>
<path d="M1623 965 c0 -27 2 -38 4 -22 2 15 2 37 0 50 -2 12 -4 0 -4 -28z"/>
<path d="M1643 965 c0 -27 2 -38 4 -22 2 15 2 37 0 50 -2 12 -4 0 -4 -28z"/>
<path d="M617 971 c-4 -17 -3 -21 5 -13 5 5 8 16 6 23 -3 8 -7 3 -11 -10z"/>
<path d="M853 955 c0 -22 2 -30 4 -17 2 12 2 30 0 40 -3 9 -5 -1 -4 -23z"/>
<path d="M889 945 c-5 -48 2 -65 26 -65 6 0 5 4 -2 8 -6 4 -13 30 -15 57 l-3
50 -6 -50z"/>
<path d="M933 928 c0 -31 4 -55 8 -52 5 3 49 5 98 6 79 1 87 3 74 16 -9 10
-17 11 -21 5 -4 -5 -39 -10 -79 -11 l-72 -1 -4 47 c-3 43 -4 42 -4 -10z"/>
<path d="M970 975 c0 -8 7 -15 15 -15 8 0 15 7 15 15 0 8 -7 15 -15 15 -8 0
-15 -7 -15 -15z"/>
<path d="M1191 958 c-1 -31 2 -35 19 -31 23 6 28 43 6 43 -8 0 -17 6 -19 13
-3 6 -6 -4 -6 -25z m29 -8 c0 -5 -4 -10 -10 -10 -5 0 -10 5 -10 10 0 6 5 10
10 10 6 0 10 -4 10 -10z"/>
<path d="M1250 956 c0 -20 5 -36 10 -36 6 0 10 13 10 29 0 17 -4 33 -10 36 -6
4 -10 -8 -10 -29z"/>
<path d="M1121 964 c0 -11 3 -14 6 -6 3 7 2 16 -1 19 -3 4 -6 -2 -5 -13z"/>
<path d="M1710 950 c0 -5 -7 -10 -15 -10 -8 0 -15 -4 -15 -10 0 -5 7 -10 15
-10 25 0 17 -28 -10 -33 -23 -4 -23 -4 2 -3 25 1 28 5 29 39 1 20 0 37 -2 37
-2 0 -4 -4 -4 -10z"/>
<path d="M621 924 c0 -11 3 -14 6 -6 3 7 2 16 -1 19 -3 4 -6 -2 -5 -13z"/>
<path d="M970 930 c0 -5 7 -10 15 -10 8 0 15 5 15 10 0 6 -7 10 -15 10 -8 0
-15 -4 -15 -10z"/>
<path d="M1132 920 c0 -14 2 -19 5 -12 2 6 2 18 0 25 -3 6 -5 1 -5 -13z"/>
<path d="M1480 908 c0 -9 -5 -18 -11 -20 -6 -2 33 -4 88 -4 54 0 80 1 58 4
-22 2 -44 9 -48 15 -6 9 -10 9 -14 0 -7 -19 -50 -16 -62 5 -9 15 -10 15 -11 0z"/>
<path d="M820 889 c0 -5 11 -9 25 -9 14 0 25 2 25 4 0 2 -11 6 -25 8 -14 3
-25 1 -25 -3z"/>
<path d="M416 774 c-13 -13 -16 -43 -16 -169 0 -148 1 -154 22 -169 34 -24
1392 -24 1426 0 21 15 22 21 22 169 0 126 -3 156 -16 169 -14 14 -93 16 -719
16 -626 0 -705 -2 -719 -16z m148 -45 c27 -21 35 -62 15 -75 -7 -4 -19 3 -28
15 -25 33 -41 8 -41 -65 0 -70 14 -89 39 -55 13 17 19 19 29 9 29 -29 -2 -88
-48 -88 -37 0 -56 28 -64 95 -8 70 7 145 34 167 28 23 32 22 64 -3z m132 -3
c25 -21 28 -32 33 -102 4 -52 9 -74 15 -65 7 11 12 9 26 -9 11 -15 23 -21 34
-17 26 10 18 37 -14 49 -36 12 -50 35 -50 82 0 48 9 66 38 77 31 12 72 -12 72
-42 0 -24 -25 -36 -44 -20 -14 12 -26 5 -26 -16 0 -8 14 -19 30 -25 37 -12 50
-35 50 -85 0 -78 -65 -113 -109 -58 l-20 26 -3 -23 c-2 -15 -10 -23 -23 -23
-17 0 -20 8 -23 53 -3 44 -6 52 -23 52 -16 0 -19 -7 -19 -55 0 -48 -3 -55 -19
-55 -24 0 -29 41 -21 163 4 67 8 82 29 98 30 24 34 24 67 -5z m271 0 c28 -24
28 -26 28 -138 0 -106 -1 -113 -20 -113 -17 0 -20 8 -23 53 -3 44 -6 52 -23
52 -16 0 -19 -7 -19 -50 0 -36 -4 -52 -15 -57 -9 -3 -18 -3 -20 -1 -10 9 -12
184 -3 215 8 29 40 63 60 63 4 0 20 -11 35 -24z m257 13 c14 -7 29 -24 34 -38
l9 -26 16 32 c28 52 86 53 103 1 l8 -23 6 25 c11 45 41 31 66 -30 l22 -55 4
55 3 55 66 3 c63 3 68 1 89 -25 19 -25 21 -38 18 -116 -3 -79 -6 -91 -27 -108
-18 -15 -37 -19 -84 -17 l-61 3 -22 55 -22 55 -4 -55 c-3 -47 -6 -55 -23 -55
-13 0 -21 8 -23 23 l-3 23 -21 -26 c-28 -36 -65 -30 -95 14 -16 24 -23 29 -23
16 0 -28 -30 -55 -61 -55 -49 0 -63 36 -63 159 l-1 106 30 6 c17 4 31 7 32 8
1 0 13 -4 27 -10z m566 -29 c0 -20 -5 -30 -15 -30 -12 0 -15 -15 -15 -75 0
-67 2 -75 19 -75 22 0 36 -49 16 -56 -7 -3 -37 -4 -66 -2 -50 3 -54 5 -54 28
0 18 6 26 23 28 20 3 22 8 22 77 0 64 -2 73 -20 78 -19 5 -27 36 -13 50 3 4
28 7 55 7 47 0 48 -1 48 -30z"/>
<path d="M652 678 c-20 -20 -15 -47 8 -41 11 3 20 14 20 24 0 23 -14 31 -28
17z"/>
<path d="M922 678 c-18 -18 -14 -38 8 -38 13 0 20 7 20 19 0 25 -13 34 -28 19z"/>
<path d="M1192 681 c-9 -5 -12 -30 -10 -77 2 -56 6 -69 21 -72 22 -4 24 36 2
44 -8 4 -15 17 -15 30 0 14 7 27 15 30 16 6 21 39 7 48 -4 2 -14 1 -20 -3z"/>
<path d="M1321 672 c-12 -22 -15 -100 -5 -126 8 -21 30 -21 38 0 11 29 6 110
-8 129 -13 18 -14 18 -25 -3z"/>
<path d="M1580 605 c0 -67 2 -75 19 -75 23 0 31 19 31 75 0 56 -8 75 -31 75
-17 0 -19 -8 -19 -75z"/>
<path d="M1258 627 c-3 -13 -1 -32 3 -43 5 -13 8 -7 8 24 1 46 -4 55 -11 19z"/>
<path d="M502 358 c-16 -16 -16 -180 0 -196 17 -17 1249 -17 1266 0 16 16 16
180 0 196 -17 17 -1249 17 -1266 0z m1263 -98 l0 -95 -630 0 -630 0 -3 84 c-2
46 -1 90 2 98 5 11 116 13 633 11 l628 -3 0 -95z"/>
<path d="M562 318 c-19 -19 -15 -103 6 -119 15 -13 16 -12 4 3 -8 10 -12 36
-10 65 3 44 5 48 28 48 16 0 26 -6 28 -19 3 -13 0 -17 -10 -14 -10 4 -15 -3
-16 -23 -2 -22 1 -27 13 -23 11 4 15 -1 16 -17 1 -20 2 -21 6 -5 3 12 -2 25
-13 33 -17 12 -17 14 2 27 15 12 17 18 8 33 -14 22 -45 28 -62 11z"/>
<path d="M720 326 c0 -2 7 -7 16 -10 8 -3 12 -2 9 4 -6 10 -25 14 -25 6z"/>
<path d="M830 308 c-10 -21 -10 -22 4 -5 18 23 59 19 64 -7 3 -15 0 -18 -19
-13 l-24 6 23 -16 c26 -18 29 -58 5 -72 -10 -6 -13 -10 -8 -11 25 0 34 18 33
70 -1 30 -6 58 -12 62 -22 15 -55 8 -66 -14z"/>
<path d="M965 320 c-4 -6 -4 -14 -1 -17 3 -4 6 -1 6 5 0 18 58 15 63 -3 4 -11
4 -10 3 2 -1 21 -60 31 -71 13z"/>
<path d="M1094 317 c-3 -8 -4 -39 -2 -68 3 -51 5 -54 32 -57 38 -5 57 15 33
32 -15 12 -16 14 -2 20 8 3 15 11 14 18 0 10 -2 10 -6 1 -2 -7 -11 -13 -19
-13 -8 0 -14 -7 -14 -15 0 -8 7 -15 15 -15 8 0 15 -4 15 -10 0 -5 -13 -10 -30
-10 l-30 0 0 60 c0 60 0 60 29 60 16 0 32 -5 34 -10 3 -6 4 -5 3 2 -4 19 -65
23 -72 5z"/>
<path d="M1224 316 c-10 -26 1 -119 14 -122 7 -1 8 0 2 3 -5 2 -10 32 -10 65
0 55 2 60 20 55 11 -3 18 -1 14 4 -8 14 -34 11 -40 -5z"/>
<path d="M1290 323 c5 -2 10 -31 10 -64 0 -44 -4 -59 -14 -59 -8 0 -17 5 -19
10 -3 6 -4 5 -3 -2 2 -7 11 -13 22 -13 17 0 19 8 19 64 0 44 -4 65 -13 67 -7
1 -8 0 -2 -3z"/>
<path d="M1408 321 c8 -4 20 -32 27 -62 14 -52 14 -52 9 -10 -5 50 -20 81 -37
81 -9 0 -8 -3 1 -9z"/>
<path d="M1517 322 c-3 -4 9 -7 26 -7 22 0 33 -5 35 -17 4 -21 -24 -25 -31 -5
-4 9 -6 9 -6 0 -1 -7 8 -17 19 -23 25 -13 26 -55 3 -69 -10 -6 -13 -11 -7 -11
21 0 33 26 32 70 -1 25 -6 51 -11 58 -10 13 -53 17 -60 4z"/>
<path d="M1657 322 c-3 -4 9 -7 26 -7 31 0 32 -1 35 -50 3 -38 -1 -52 -14 -62
-10 -7 -13 -13 -8 -13 21 0 34 26 34 70 0 25 -5 51 -12 58 -13 13 -54 16 -61
4z"/>
<path d="M696 274 c-4 -20 -5 -38 -3 -40 3 -3 8 11 11 32 4 20 5 38 3 40 -3 3
-8 -11 -11 -32z"/>
<path d="M1372 259 c-7 -28 -10 -54 -7 -59 3 -4 24 -8 47 -8 40 -1 41 0 17 12
-13 6 -25 8 -27 4 -2 -4 -11 -8 -19 -8 -11 0 -14 7 -9 26 13 51 18 84 14 84
-3 0 -10 -23 -16 -51z"/>
<path d="M752 280 c0 -14 2 -19 5 -12 2 6 2 18 0 25 -3 6 -5 1 -5 -13z"/>
<path d="M1012 253 c-1 -30 -7 -53 -14 -56 -10 -4 -10 -6 0 -6 18 -1 24 20 19
70 l-4 44 -1 -52z"/>
<path d="M1130 286 c0 -9 5 -16 10 -16 6 0 10 4 10 9 0 6 -4 13 -10 16 -5 3
-10 -1 -10 -9z"/>
<path d="M1501 288 c-1 -9 4 -20 9 -23 8 -5 7 -11 -1 -21 -6 -8 -9 -17 -5 -21
3 -3 6 -1 6 5 0 16 27 15 33 0 4 -8 6 -7 6 3 1 9 -6 19 -14 23 -9 3 -20 16
-25 28 -6 17 -9 18 -9 6z"/>
<path d="M1642 260 c-2 -44 10 -70 32 -70 5 0 2 6 -7 13 -9 7 -18 31 -20 57
l-4 45 -1 -45z"/>
<path d="M1683 260 c0 -25 2 -35 4 -22 2 12 2 32 0 45 -2 12 -4 2 -4 -23z"/>
<path d="M983 250 c0 -25 2 -35 4 -22 2 12 2 32 0 45 -2 12 -4 2 -4 -23z"/>
<path d="M832 265 c4 -5 3 -14 -4 -22 -6 -7 -8 -16 -4 -20 3 -3 6 -1 6 5 0 16
27 15 33 0 4 -9 6 -8 6 2 1 8 -9 21 -21 29 -13 7 -20 10 -16 6z"/>
<path d="M764 228 c3 -29 -17 -40 -28 -15 -5 10 -7 10 -12 0 -7 -16 -30 -17
-37 -3 -3 6 -4 5 -3 -2 3 -13 83 -22 89 -10 2 4 0 18 -4 32 -9 25 -9 25 -5 -2z"/>
<path d="M837 199 c7 -7 15 -10 18 -7 3 3 -2 9 -12 12 -14 6 -15 5 -6 -5z"/>
<path d="M1517 199 c7 -7 15 -10 18 -7 3 3 -2 9 -12 12 -14 6 -15 5 -6 -5z"/>
</g>
</svg>
