<?xml version="1.0" standalone="no"?>
<!DOCTYPE svg PUBLIC "-//W3C//DTD SVG 20010904//EN"
 "http://www.w3.org/TR/2001/REC-SVG-20010904/DTD/svg10.dtd">
<svg version="1.0" xmlns="http://www.w3.org/2000/svg"
 width="300.000000pt" height="225.000000pt" viewBox="0 0 300.000000 225.000000"
 preserveAspectRatio="xMidYMid meet">
<metadata>
Created by potrace 1.10, written by Peter Selinger 2001-2011
</metadata>
<g transform="translate(0.000000,225.000000) scale(0.100000,-0.100000)"
fill="#000000" stroke="none">
<path d="M11 2240 c-1 -24 15 -44 24 -31 3 7 14 9 23 7 10 -3 24 -1 32 4 12 8
11 10 -7 10 -13 0 -23 5 -23 11 0 6 -8 3 -17 -7 -16 -15 -17 -15 -24 2 -5 13
-8 14 -8 4z"/>
<path d="M113 2234 c0 -7 8 -16 18 -19 14 -5 17 -15 14 -50 -2 -27 1 -45 8
-45 6 0 7 3 4 6 -10 11 12 44 30 44 12 0 13 3 4 14 -8 9 -8 21 -1 40 9 26 -3
38 -14 14 -5 -10 -7 -10 -12 0 -5 10 -10 9 -21 -5 -8 -10 -12 -13 -9 -7 3 7 0
14 -7 17 -8 3 -14 -1 -14 -9z"/>
<path d="M255 2229 c-5 -15 -10 -17 -20 -9 -10 8 -14 -1 -18 -42 -5 -52 2 -67
30 -68 7 0 22 18 33 40 17 34 18 40 5 40 -9 0 -15 -9 -15 -23 0 -23 -17 -47
-32 -47 -11 0 -7 70 4 76 5 3 8 2 7 -3 -5 -26 4 -23 16 6 10 23 20 31 30 27 9
-3 15 0 15 9 0 24 -47 19 -55 -6z"/>
<path d="M362 2228 c2 -19 -1 -22 -19 -20 -13 2 -23 -2 -23 -8 0 -7 7 -10 15
-7 8 4 17 2 21 -4 4 -6 11 -6 19 1 8 7 19 8 26 4 7 -4 10 -2 7 7 -3 8 -11 13
-17 12 -6 -2 -11 6 -11 17 0 11 -5 20 -11 20 -5 0 -9 -10 -7 -22z"/>
<path d="M70 2200 c-8 -5 -18 -6 -24 -3 -5 4 -6 1 -1 -7 6 -10 1 -12 -19 -8
-22 5 -26 2 -26 -19 0 -14 4 -21 10 -18 6 4 7 11 4 17 -4 6 3 8 17 7 13 -2 30
0 37 5 9 5 20 2 30 -9 16 -16 16 -17 -3 -13 -26 5 -52 -47 -34 -68 15 -19 29
-18 29 2 0 8 -4 13 -9 9 -12 -7 -22 8 -13 21 4 5 19 17 34 27 24 15 26 20 16
37 -7 10 -15 17 -19 14 -4 -2 -9 0 -11 6 -2 6 -9 6 -18 0z"/>
<path d="M340 2164 c0 -8 -11 -30 -25 -48 -14 -18 -23 -35 -20 -38 3 -3 -1
-10 -8 -17 -16 -13 -50 -4 -41 10 3 5 0 9 -6 9 -6 0 -8 5 -4 13 5 8 2 8 -9 -2
-9 -7 -17 -21 -18 -30 0 -12 -2 -11 -8 4 -5 11 -8 37 -6 58 1 34 -4 45 -17 32
-3 -3 -2 -25 2 -48 6 -41 5 -45 -27 -65 -22 -15 -31 -27 -26 -38 5 -14 9 -12
20 10 18 35 42 35 35 0 -3 -20 -7 -23 -14 -12 -7 9 -8 4 -3 -15 4 -21 3 -27
-6 -21 -9 5 -10 0 -5 -19 5 -21 1 -30 -24 -47 -16 -12 -30 -27 -30 -33 0 -20
-48 -73 -57 -63 -4 5 -2 11 5 13 7 3 19 20 26 38 8 18 28 43 45 56 16 12 28
26 25 30 -5 9 -74 -55 -74 -68 0 -4 -11 -21 -25 -37 -13 -16 -22 -33 -19 -38
3 -5 0 -16 -7 -25 -8 -8 -15 -31 -16 -51 l-2 -35 24 35 c13 20 43 52 67 73 24
20 37 34 30 30 -6 -3 -12 -3 -12 2 0 10 58 73 68 73 3 0 1 -5 -6 -12 -15 -15
-15 -28 -1 -28 5 0 7 5 4 10 -3 6 -2 10 3 10 5 0 12 9 15 19 3 14 1 18 -9 14
-8 -3 -14 0 -14 6 0 6 5 11 10 11 6 0 10 10 10 23 0 13 3 27 8 31 4 4 7 16 7
27 0 10 4 18 9 18 5 0 12 5 17 12 4 8 11 11 14 8 3 -4 -6 -29 -20 -57 -25 -51
-34 -84 -12 -46 33 56 81 104 99 98 10 -3 18 -1 18 5 0 6 -4 11 -10 11 -5 0
-10 5 -10 10 0 6 8 10 19 10 14 0 17 -6 13 -26 -2 -14 -11 -28 -18 -31 -23 -9
-16 -25 9 -18 19 5 20 5 4 -5 -10 -7 -25 -9 -32 -6 -12 4 -13 2 -3 -13 10 -17
13 -17 26 -4 8 7 17 11 20 8 4 -3 1 -10 -7 -14 -9 -6 -7 -10 10 -14 19 -5 20
-8 9 -21 -21 -27 -1 -18 25 10 21 22 27 25 40 14 12 -10 15 -10 15 4 0 9 5 16
11 16 5 0 7 5 4 10 -3 6 -1 10 6 10 7 0 9 3 6 6 -4 4 -13 1 -22 -6 -8 -7 -25
-14 -38 -15 -40 -4 -42 -5 -28 -14 9 -6 10 -11 2 -15 -17 -11 -25 22 -14 59 9
27 8 32 -3 28 -19 -7 -18 11 1 27 11 9 12 15 5 20 -13 8 -16 38 -6 61 5 10 1
19 -8 22 -10 4 -16 1 -16 -9z"/>
<path d="M399 2158 c-19 -7 -21 -11 -9 -18 8 -5 19 -5 25 0 5 4 21 10 35 12
l25 4 -26 5 c-14 3 -37 2 -50 -3z"/>
<path d="M0 2066 c0 -9 5 -16 10 -16 6 0 10 -5 10 -11 0 -5 -4 -7 -10 -4 -5 3
-10 -1 -10 -9 0 -26 14 -24 38 5 14 17 18 27 9 23 -8 -3 -22 2 -31 11 -14 15
-16 15 -16 1z"/>
<path d="M420 2052 c0 -6 -7 -9 -14 -6 -13 5 -13 1 -4 -24 15 -38 41 -32 32 7
-8 29 -14 40 -14 23z"/>
<path d="M28 1983 c6 -2 12 -16 12 -30 0 -21 2 -24 15 -13 8 7 15 8 15 3 0 -5
6 -10 14 -10 11 0 12 4 3 19 -7 10 -17 16 -24 14 -6 -3 -14 2 -17 10 -3 8 -11
14 -18 13 -10 0 -10 -2 0 -6z"/>
<path d="M7 1907 c-3 -9 -2 -19 3 -22 5 -3 7 -12 3 -20 -8 -22 15 -18 27 4 7
13 7 22 0 26 -5 3 -10 3 -11 -2 0 -4 -4 1 -8 11 -7 17 -8 18 -14 3z"/>
<path d="M300 1910 c-8 -5 -24 -8 -35 -6 -11 2 -14 1 -7 -1 6 -3 12 -11 12
-19 0 -19 35 -2 44 21 6 18 6 18 -14 5z"/>
<path d="M380 1910 c0 -5 -8 -7 -17 -3 -14 5 -16 3 -6 -7 17 -18 -2 -50 -29
-50 -16 0 -18 -3 -9 -14 9 -10 8 -16 -4 -26 -12 -10 -15 -9 -16 6 -1 11 0 24
1 29 1 6 -9 0 -22 -13 -14 -12 -28 -19 -31 -15 -4 3 -7 -1 -7 -10 0 -9 -4 -17
-8 -17 -5 0 -14 -18 -21 -40 -8 -29 -23 -47 -49 -64 -24 -15 -38 -32 -39 -46
-3 -32 -13 -40 -64 -44 -24 -2 -47 -4 -51 -5 -5 -1 -8 -5 -8 -10 0 -11 121 -2
133 9 5 5 10 20 10 34 2 22 6 26 26 24 19 -2 25 2 26 20 1 13 15 34 31 47 26
21 30 21 40 6 20 -30 24 -50 8 -44 -19 7 -18 -11 1 -27 15 -13 19 -4 18 38 -1
6 4 12 11 12 6 0 -2 11 -19 24 -29 24 -29 24 -12 44 11 12 24 19 30 16 7 -2
21 9 31 25 17 25 25 28 53 24 21 -4 41 0 59 12 30 20 26 32 -6 15 -12 -7 -20
-8 -16 -2 3 5 -1 13 -9 16 -9 3 -18 -1 -21 -9 -4 -8 -10 -15 -15 -15 -5 0 -3
16 5 35 8 19 11 35 5 35 -5 0 -9 -4 -9 -10z m-94 -106 c-3 -9 -6 -18 -6 -20 0
-2 -7 -4 -15 -4 -18 0 -19 12 -3 28 17 17 31 15 24 -4z"/>
<path d="M220 1891 c0 -7 -4 -10 -9 -6 -5 3 -13 0 -16 -6 -10 -15 26 -39 50
-33 17 4 18 3 5 -6 -12 -9 -12 -11 -1 -8 30 8 23 28 -9 28 -28 0 -31 2 -20 15
7 9 10 18 6 22 -3 3 -6 1 -6 -6z"/>
<path d="M2923 1859 c-4 -15 -8 -17 -14 -7 -6 9 -8 7 -7 -7 3 -32 33 -25 35 7
3 33 -6 37 -14 7z"/>
<path d="M2890 1808 c-1 -5 -3 -11 -5 -15 -7 -28 -25 -61 -39 -72 -18 -15 -21
-37 -7 -43 15 -5 18 -63 3 -60 -9 1 -8 -4 3 -21 8 -14 13 -31 9 -40 -3 -9 3
-24 14 -35 16 -16 22 -18 26 -7 3 8 1 17 -4 20 -5 3 -6 13 -3 22 3 9 0 21 -8
27 -20 15 -20 58 0 73 14 12 14 12 0 8 -13 -5 -16 1 -14 28 1 18 10 45 19 60
10 14 16 34 13 44 -3 10 -6 15 -7 11z"/>
<path d="M371 1657 c-1 -11 -6 -16 -13 -12 -7 4 -4 0 6 -9 10 -8 23 -13 28
-10 5 3 8 2 7 -3 -3 -19 2 -33 12 -33 6 0 9 7 6 15 -4 8 -2 17 4 20 15 10 -2
27 -22 22 -11 -3 -20 1 -22 12 -4 13 -5 13 -6 -2z"/>
<path d="M493 1654 c3 -4 -1 -14 -10 -23 -15 -15 -15 -16 0 -19 9 -2 17 -9 17
-15 0 -7 5 -4 11 6 5 9 7 21 4 26 -3 6 3 14 12 20 15 9 14 10 -11 11 -16 0
-27 -3 -23 -6z"/>
<path d="M279 1624 c0 -5 -2 -19 -3 -31 -3 -26 0 -28 18 -10 11 11 11 16 0 32
-8 10 -14 15 -15 9z"/>
<path d="M340 1619 c0 -5 -6 -7 -12 -3 -8 4 -10 3 -5 -2 5 -5 14 -9 20 -9 7
-1 11 -5 10 -11 -1 -5 7 -10 17 -11 23 -2 17 18 -10 35 -13 8 -20 8 -20 1z"/>
<path d="M1250 1597 c-3 -2 -102 -7 -220 -11 -118 -4 -237 -9 -265 -11 -27 -3
-131 -7 -230 -10 -269 -8 -369 -16 -381 -28 -4 -4 -19 -7 -33 -7 -22 0 -18 -5
26 -31 29 -17 53 -35 53 -40 0 -5 11 -15 25 -21 13 -6 27 -18 30 -27 3 -11 18
-18 42 -19 44 -3 47 -6 39 -28 -5 -12 -14 -15 -36 -11 -16 4 -32 2 -36 -4 -7
-13 34 -54 44 -44 4 4 1 10 -5 12 -20 7 -15 23 7 23 18 0 20 -7 20 -74 0 -104
-5 -112 -41 -72 -16 19 -29 40 -29 47 -1 10 -5 8 -15 -5 -19 -25 -37 -12 -25
19 7 17 5 28 -4 38 -7 7 -16 22 -20 34 -4 12 -13 26 -20 32 -11 9 -16 6 -24
-17 -9 -25 -7 -28 11 -28 11 1 22 -5 25 -13 2 -8 0 -11 -5 -8 -11 7 -11 -23 1
-42 6 -10 5 -12 -5 -7 -8 3 -22 9 -31 12 -10 4 -18 13 -18 20 0 16 -36 19 -45
5 -6 -11 35 -42 46 -35 10 6 49 -13 49 -24 0 -5 -7 -17 -16 -28 -15 -19 -15
-19 -10 1 5 17 -1 23 -34 32 -45 12 -54 2 -12 -14 24 -10 24 -11 6 -12 -21 -1
-40 -28 -29 -39 3 -3 5 0 5 7 0 8 6 11 16 7 8 -3 12 -2 9 4 -7 11 18 14 28 4
3 -3 2 -16 -3 -29 -5 -13 -11 -43 -15 -66 -18 -136 -30 -132 -73 26 -6 22 -20
65 -31 95 -16 44 -20 49 -21 27 0 -15 9 -47 20 -69 11 -23 17 -44 14 -47 -4
-3 -9 0 -11 7 -5 13 -23 17 -23 4 0 -5 7 -17 16 -28 8 -10 12 -12 8 -4 -5 10
-4 12 4 5 6 -5 17 -29 25 -52 12 -34 12 -40 1 -36 -8 3 -14 18 -14 34 0 36
-16 38 -24 4 -7 -26 12 -53 51 -73 10 -6 30 -32 43 -59 28 -55 27 -52 29 -98
1 -35 1 -35 47 -35 27 0 43 4 39 10 -3 6 -22 10 -41 10 -23 0 -34 5 -34 14 0
15 37 19 55 5 6 -4 16 -1 23 7 10 11 10 14 0 14 -10 0 -10 2 -1 8 7 4 11 17
10 29 0 12 -5 19 -9 17 -4 -3 -8 0 -8 5 0 6 5 11 10 11 6 0 10 10 10 23 0 13
5 28 11 34 9 9 7 10 -10 6 -17 -4 -21 -1 -22 18 l-1 24 -6 -23 c-4 -13 -12
-23 -17 -23 -6 1 -10 -3 -10 -9 0 -5 -4 -9 -10 -7 -5 1 -9 5 -8 10 2 4 -2 7
-8 7 -6 0 -9 -6 -6 -12 2 -7 1 -20 -4 -29 -7 -13 -4 -15 16 -11 14 2 23 8 20
12 -3 4 2 13 10 20 12 10 15 9 16 -6 0 -11 2 -29 3 -41 2 -20 -2 -23 -35 -23
-34 0 -39 3 -49 35 -9 26 -9 48 0 89 l11 55 34 -6 c40 -6 69 2 60 17 -5 8 -11
7 -21 0 -8 -8 -22 -9 -39 -3 l-25 8 23 25 c12 14 33 41 47 60 13 19 25 37 26
39 2 2 19 -14 39 -35 l35 -39 -6 -125 c-3 -69 -10 -174 -13 -235 -4 -60 -6
-112 -5 -114 2 -2 39 0 83 4 52 5 79 11 74 17 -4 8 58 9 195 6 l200 -5 6 56
c3 31 8 130 11 220 3 90 9 169 12 174 4 6 0 8 -10 4 -13 -5 -17 -1 -16 21 0
15 3 21 6 15 2 -7 9 -13 14 -13 14 0 11 157 -3 180 -11 17 -10 22 1 29 11 7
11 9 0 14 -10 4 -10 6 -1 6 7 1 12 15 12 35 0 32 2 34 41 38 l41 4 -4 -166
c-3 -91 -3 -133 -1 -95 2 41 9 74 17 80 7 6 18 19 24 30 10 18 11 15 12 -19 0
-31 -3 -37 -12 -28 -22 22 -26 12 -26 -70 -1 -80 -8 -280 -17 -439 l-4 -76
122 -7 c67 -4 127 -7 132 -7 6 0 68 3 139 7 120 7 129 6 139 -12 10 -17 12
-16 18 11 10 47 10 822 0 806 -5 -8 -7 -20 -4 -28 3 -7 -2 -13 -12 -13 -9 0
-14 -3 -12 -7 3 -5 -92 -8 -210 -8 -194 0 -215 -2 -224 -17 -14 -26 -25 -22
-43 13 -28 57 -19 59 218 58 116 0 227 0 246 2 73 6 -641 14 -755 8 -96 -5
-106 -6 -50 -8 39 -2 100 -2 136 -2 53 2 66 -1 66 -14 0 -8 -5 -15 -11 -15 -6
0 -4 -4 4 -10 8 -5 12 -11 9 -14 -3 -3 -82 -7 -175 -10 -110 -2 -177 -8 -190
-16 -16 -10 -27 -9 -58 4 -44 18 -56 20 -56 7 0 -4 23 -18 50 -29 l50 -21 -1
-58 c0 -42 -3 -53 -9 -38 -6 14 -7 6 -3 -22 7 -54 -9 -56 -29 -5 -13 31 -16
34 -23 18 -4 -10 -4 -21 2 -25 11 -7 27 -42 25 -53 -1 -4 5 -5 13 -2 10 4 14
-4 13 -35 0 -23 -4 -38 -10 -35 -5 3 -4 -3 3 -14 7 -12 10 -24 7 -28 -8 -8
-41 23 -57 54 -7 13 -15 21 -18 19 -2 -3 0 -15 7 -26 8 -16 8 -21 -2 -21 -33
1 -40 17 -35 79 6 67 13 85 29 75 7 -4 8 -2 4 5 -4 6 -12 9 -17 6 -5 -4 -9 15
-9 44 0 30 5 51 13 54 8 4 8 6 0 6 -6 1 -9 10 -6 21 3 11 1 20 -5 20 -6 0 -9
10 -7 21 3 12 0 29 -5 38 -5 9 -10 13 -11 9 -1 -5 -3 -12 -4 -18 -1 -5 -3 -19
-4 -30 -1 -17 -6 -19 -33 -13 -18 3 -37 12 -43 18 -5 7 -19 17 -30 23 -19 10
-18 11 5 10 64 -4 100 2 100 17 0 12 -15 15 -76 15 -45 0 -73 4 -69 10 3 5
292 10 758 11 414 0 775 2 802 4 43 2 705 6 906 5 51 0 68 -4 73 -16 5 -12 1
-14 -15 -9 -21 7 -21 7 -3 -18 l19 -26 9 23 c5 12 24 33 44 46 34 24 35 25 11
31 -13 3 -37 4 -53 3 -23 -3 -27 -1 -18 8 19 19 14 30 -8 18 -11 -6 -18 -15
-15 -19 2 -5 -6 -8 -20 -8 -14 0 -22 3 -19 8 3 5 -2 9 -11 9 -9 0 -13 -4 -10
-10 4 -6 -13 -10 -45 -10 -36 0 -49 3 -44 12 5 7 3 8 -6 3 -23 -14 -92 -16
-83 -2 5 9 3 9 -8 1 -14 -11 -82 -15 -276 -17 -57 0 -103 -4 -103 -9 0 -14
-138 -10 -143 5 -3 9 -8 9 -18 1 -17 -13 -238 -17 -258 -5 -8 5 -25 3 -42 -6
-16 -8 -33 -11 -39 -8 -6 4 -22 8 -36 11 -19 3 -24 1 -18 -8 6 -10 3 -9 -9 1
-11 9 -17 10 -17 2 0 -6 -7 -11 -16 -11 -8 0 -13 4 -10 9 5 7 -42 8 -69 1 -5
-1 -14 -1 -20 0 -31 6 -125 4 -125 -4 0 -5 -19 -5 -42 -1 -59 10 -289 12 -294
3 -3 -5 -10 -8 -15 -8 -6 0 -8 3 -6 8 3 4 -8 7 -24 7 -16 1 -29 -3 -29 -7 0
-4 -7 -8 -16 -8 -8 0 -13 4 -10 8 2 4 -9 9 -25 10 -18 1 -28 -2 -25 -7 4 -6
-5 -6 -24 -1 -19 5 -28 5 -25 -1 4 -5 -1 -9 -10 -9 -9 0 -14 4 -11 9 7 11 -57
9 -65 -3 -4 -4 -27 -4 -53 2 -25 5 -46 7 -46 3 0 -5 -203 -7 -250 -2 -13 1
-13 3 -1 10 8 5 66 10 130 11 64 0 225 2 359 4 133 2 245 6 249 9 3 4 13 1 21
-6 13 -9 14 -9 8 1 -5 8 0 12 16 12 18 0 20 -2 8 -10 -12 -7 -8 -10 15 -10 23
0 27 3 15 10 -11 7 -2 10 33 10 31 0 47 -4 47 -12 0 -10 2 -10 9 0 10 17 81
28 81 13 0 -6 19 -8 46 -5 25 2 51 1 58 -3 18 -12 36 -12 36 -1 0 7 15 8 39 4
32 -5 40 -3 44 11 4 17 5 17 6 1 1 -19 16 -24 25 -9 8 12 30 8 49 -7 12 -10
17 -10 23 -1 4 7 3 9 -4 5 -6 -3 -13 -2 -16 2 -3 5 14 7 37 5 65 -5 67 -6 67
-17 0 -6 4 -5 9 3 5 8 18 12 30 8 12 -3 21 0 21 6 0 7 4 6 9 -3 6 -8 7 -18 4
-24 -3 -5 -1 -6 5 -2 6 4 9 13 6 21 -4 9 0 12 13 10 10 -2 23 -4 30 -4 7 -1
10 -8 7 -18 -5 -15 -4 -16 5 -3 7 10 28 15 63 15 29 1 59 5 67 10 9 5 16 5 18
-1 3 -10 350 -11 360 0 3 3 -38 6 -93 7 -54 0 -128 2 -164 4 -115 6 -825 17
-830 12z m-550 -238 c0 -16 -4 -29 -10 -29 -5 0 -10 4 -10 9 0 6 -12 6 -32 0
-18 -5 -33 -9 -34 -9 -1 0 -4 9 -7 21 -3 12 -10 18 -16 14 -8 -4 -6 -13 4 -28
22 -31 18 -47 -10 -47 -29 0 -32 8 -7 26 15 13 15 13 0 8 -16 -5 -18 5 -9 58
1 7 109 16 124 10 4 -2 7 -16 7 -33z m150 20 c0 -5 -6 -6 -14 -3 -9 3 -17 -3
-21 -15 -3 -12 -10 -21 -15 -21 -5 0 -23 -12 -40 -26 -17 -15 -34 -24 -37 -20
-11 11 21 58 55 81 31 21 72 24 72 4z m-302 -24 c-1 -19 -6 -35 -12 -35 -6 0
-4 -5 4 -10 13 -9 13 -11 1 -19 -27 -17 -41 -1 -39 43 3 41 12 56 35 56 8 0
12 -13 11 -35z m911 -44 l-1 -80 -50 -10 c-92 -20 -116 -11 -84 32 10 12 27
17 65 17 36 0 50 3 45 11 -4 8 -27 9 -66 5 l-59 -6 6 44 c5 28 3 46 -4 50 -7
5 -11 -7 -11 -36 0 -37 -3 -44 -20 -45 -11 -1 -20 3 -20 8 0 6 -7 6 -19 -1
-11 -5 -33 -10 -50 -10 -30 0 -31 2 -33 48 l-2 47 -3 -47 -4 -48 -45 0 c-24 0
-44 -4 -44 -10 0 -5 20 -10 45 -10 l45 0 0 -70 0 -70 -56 0 -55 0 2 123 c1 75
6 125 13 129 6 4 100 8 209 8 l197 0 -1 -79z m-609 32 c0 -10 -7 -27 -15 -37
-12 -15 -12 -22 -3 -27 9 -6 6 -15 -12 -33 -33 -36 -59 -35 -31 0 26 33 26 44
1 39 -11 -2 -22 0 -25 5 -8 13 35 39 53 33 10 -4 13 -2 8 5 -8 14 0 32 15 32
5 0 9 -8 9 -17z m-161 -22 c17 -11 7 -41 -13 -41 -8 0 -20 8 -25 18 -9 15 -12
15 -21 2 -8 -13 -10 -13 -10 2 0 9 10 18 23 21 12 2 24 5 27 5 3 1 11 -2 19
-7z m-174 -61 c-5 -14 -2 -20 9 -20 9 0 16 8 16 17 0 9 3 14 6 10 3 -3 3 -15
-1 -27 -5 -16 -12 -19 -28 -14 -12 3 -24 8 -25 9 -7 7 10 45 19 45 6 0 7 -9 4
-20z m69 -4 c-2 -14 0 -28 6 -31 6 -4 10 5 10 20 0 29 19 40 56 31 27 -7 28
-32 0 -30 -9 1 -16 -2 -16 -7 0 -5 3 -9 8 -9 4 0 17 -3 29 -6 18 -5 22 -1 25
23 2 22 8 28 28 30 14 1 33 -1 42 -3 16 -5 16 -7 2 -30 -16 -24 -44 -33 -44
-14 0 6 -4 10 -8 10 -5 0 -7 -13 -4 -29 5 -33 -23 -52 -31 -20 -5 20 -27 27
-27 8 0 -5 -5 -7 -11 -3 -8 4 -7 9 2 15 10 6 7 8 -9 6 -12 0 -22 -7 -22 -15 0
-7 4 -11 9 -7 13 7 25 -14 25 -44 1 -13 7 -26 14 -28 9 -4 10 1 2 21 -6 17 -6
26 1 26 5 0 12 -7 16 -16 5 -15 7 -15 15 0 5 9 15 16 22 16 8 0 16 6 19 14 3
8 27 17 56 21 28 4 51 11 51 16 0 4 -8 5 -17 2 -14 -6 -14 -3 3 20 20 27 34
34 34 17 0 -5 -5 -10 -12 -10 -9 0 -9 -3 0 -12 20 -20 15 -47 -8 -43 -11 2
-23 -1 -26 -7 -4 -7 -2 -8 4 -4 7 4 12 1 12 -8 0 -10 -6 -13 -16 -9 -12 4 -15
2 -12 -8 3 -8 10 -13 16 -12 7 2 11 -11 10 -31 -1 -27 -5 -33 -17 -28 -9 3
-13 2 -9 -3 9 -9 -9 -35 -23 -35 -5 0 -8 6 -6 12 1 7 -9 14 -23 16 -14 2 -31
9 -39 15 -8 7 -12 7 -9 2 4 -6 -2 -17 -14 -24 -11 -7 -17 -8 -13 -2 4 7 -3 11
-17 10 -13 0 -17 -3 -9 -6 11 -5 11 -7 0 -14 -10 -6 -7 -9 11 -10 14 -1 29 -1
34 0 5 1 12 -3 16 -10 4 -6 13 -10 20 -7 9 3 8 8 -4 20 -26 26 -19 29 19 8 38
-21 70 -27 60 -10 -3 6 1 10 9 10 16 0 19 -16 17 -120 -1 -64 -10 -160 -16
-170 -3 -5 -1 -11 5 -15 5 -3 10 -12 10 -18 0 -7 -4 -6 -10 3 -8 12 -10 10
-10 -10 0 -25 -2 -26 -67 -27 -41 0 -71 4 -75 11 -6 8 -8 7 -8 -1 0 -9 -21
-13 -74 -13 l-73 0 5 28 c2 15 2 24 -2 20 -4 -3 -9 -14 -10 -25 -2 -11 -13
-19 -29 -21 -25 -3 -26 -1 -21 35 2 21 9 39 14 41 5 2 3 10 -5 19 -12 12 -13
18 -4 29 6 8 7 14 2 14 -6 0 -8 11 -5 25 3 16 11 25 23 25 11 0 19 5 19 10 0
6 -4 10 -9 10 -14 0 -21 44 -8 53 9 7 9 10 -1 14 -10 4 -8 11 9 29 l22 24 -21
0 c-13 0 -22 6 -22 15 0 17 35 21 45 5 3 -5 17 -10 31 -10 27 0 27 0 15 -32
-7 -20 -6 -24 10 -24 10 0 20 6 20 13 3 33 6 38 17 36 6 -2 9 4 6 12 -4 9 -2
21 4 28 5 6 13 22 16 34 6 18 3 22 -21 25 -21 2 -29 10 -33 28 -3 14 -12 25
-20 25 -22 0 -24 34 -4 56 10 11 12 19 6 19 -7 0 -12 5 -12 10 0 6 6 10 14 10
10 0 13 -8 10 -24z m653 0 c-3 -7 -2 -17 3 -22 5 -5 11 -30 15 -56 7 -44 6
-48 -14 -48 -24 0 -46 35 -35 58 12 27 12 53 0 49 -6 -2 -10 -25 -10 -53 2
-42 -1 -50 -17 -51 -16 -2 -19 5 -19 43 0 25 4 43 8 40 5 -3 9 1 9 9 0 8 -4
12 -9 9 -4 -3 -8 4 -8 15 0 18 6 21 41 21 31 0 40 -3 36 -14z m62 -54 c0 -54
-3 -69 -14 -69 -18 0 -18 2 -5 28 8 15 7 19 -5 19 -8 0 -15 6 -15 14 0 7 -3
28 -6 45 -6 28 -4 31 19 31 24 0 25 -2 26 -68z m-1104 -31 c-58 -84 -78 -73
-24 13 22 35 34 45 41 38 8 -8 3 -23 -17 -51z m329 43 c11 -4 16 -19 16 -46 0
-35 -2 -39 -22 -36 -20 3 -23 9 -24 46 0 43 3 47 30 36z m954 -24 c15 -1 15
-2 0 -11 -16 -9 -18 -29 -18 -189 0 -99 -3 -180 -7 -180 -5 0 -7 -26 -5 -57
l3 -58 -75 0 -76 0 0 42 c0 23 -4 45 -10 48 -9 6 -15 -9 -10 -30 1 -5 -1 -23
-4 -40 -6 -30 -7 -30 -61 -27 l-55 4 -1 51 c-1 29 0 66 1 83 1 17 3 53 4 78 3
52 -10 72 -17 29 -3 -16 -5 -64 -6 -108 -1 -44 -4 -92 -7 -107 -5 -26 -8 -28
-47 -23 -23 2 -48 4 -54 4 -7 1 -13 8 -13 16 0 12 -5 13 -27 4 -22 -8 -25 -8
-16 2 7 7 9 24 6 40 -3 18 -1 29 6 29 6 0 11 5 11 10 0 6 -6 9 -12 8 -15 -3
-12 64 3 73 6 3 3 11 -6 19 -19 16 -20 34 0 26 16 -6 21 22 7 39 -4 6 -6 40
-4 77 3 54 6 65 16 55 7 -7 15 -19 19 -27 3 -8 6 0 6 18 1 17 4 32 9 32 11 -1
42 -26 43 -36 0 -5 13 -19 29 -32 l28 -22 21 34 c12 18 21 38 21 45 0 6 16 11
35 11 32 0 35 -2 31 -25 -3 -13 -8 -30 -12 -37 -5 -7 -2 -9 9 -5 9 3 18 1 20
-6 2 -7 4 6 3 28 -1 31 3 40 18 43 15 3 18 -1 14 -22 -5 -25 -4 -25 12 -11 9
8 20 12 25 8 4 -5 5 -2 1 5 -4 7 -2 12 6 12 8 0 14 10 15 22 1 11 7 25 14 29
8 5 6 9 -7 12 -10 2 -1 5 22 6 22 0 45 -4 52 -11 9 -9 12 -5 13 18 0 16 3 23
6 17 2 -7 12 -13 21 -13z m-128 -53 c0 -5 -7 -7 -14 -4 -10 4 -13 1 -10 -7 3
-8 1 -17 -5 -21 -7 -4 -11 7 -11 29 0 34 1 35 20 24 11 -7 20 -17 20 -21z
m-775 3 c-2 -3 5 -14 15 -23 16 -14 18 -21 9 -40 -8 -18 -17 -23 -35 -19 -17
3 -23 9 -20 19 3 8 6 27 6 42 0 18 5 28 15 28 8 0 12 -3 10 -7z m-45 -57 c0
-14 -32 -18 -43 -6 -4 3 1 14 11 23 17 17 32 10 32 -17z m575 20 c0 -6 3 -15
8 -19 4 -4 7 3 7 15 0 34 17 16 18 -19 0 -16 -1 -30 -4 -30 -10 0 -44 36 -44
46 0 7 -6 15 -12 18 -7 3 -4 5 7 3 11 -1 20 -7 20 -14z m-649 -193 c-3 -74 -9
-155 -12 -180 -6 -48 -8 -49 -79 -54 -33 -2 -33 18 0 25 l30 7 -27 1 c-26 1
-28 4 -28 40 0 36 3 40 30 46 18 4 30 13 30 22 0 14 -3 14 -20 -2 -10 -9 -26
-15 -33 -12 -21 8 -27 43 -11 64 12 16 13 16 14 1 0 -14 7 -16 35 -11 34 5 35
5 35 -26 0 -43 15 -39 16 4 0 34 -17 52 -38 38 -6 -3 -8 -1 -5 4 4 6 -4 14
-18 17 -31 8 -32 29 -2 44 l22 11 -22 0 c-25 1 -27 10 -17 83 l6 45 51 -16 50
-16 -7 -135z m1038 123 c-5 -2 -9 -65 -9 -141 0 -75 -2 -153 -6 -172 -3 -19
-7 50 -8 154 -1 172 0 187 15 175 9 -7 12 -15 8 -16z"/>
<path d="M740 1162 l-35 -5 30 -6 c17 -3 31 -12 31 -19 1 -6 2 -16 3 -20 2
-12 41 -12 41 -1 0 6 5 7 10 4 6 -3 10 -1 10 4 0 6 -6 12 -12 12 -7 1 -19 2
-27 3 -22 2 -25 24 -4 29 23 6 -1 5 -47 -1z"/>
<path d="M587 970 c-37 -11 -56 -37 -57 -76 0 -32 26 -65 51 -63 8 0 3 5 -9
12 -21 10 -23 16 -18 51 4 21 9 43 12 48 8 12 68 10 82 -4 9 -9 12 -9 12 0 0
6 -12 15 -26 18 -19 5 -22 9 -12 15 16 11 2 10 -35 -1z"/>
<path d="M686 921 c-9 -15 -12 -12 41 -35 23 -10 50 -16 59 -12 24 9 13 16
-30 20 -21 2 -43 12 -50 21 -10 13 -15 15 -20 6z"/>
<path d="M583 883 c-10 -3 -9 -8 2 -19 11 -12 19 -13 36 -3 17 9 19 13 8 20
-15 9 -27 10 -46 2z"/>
<path d="M682 854 c3 -19 98 -32 98 -14 0 10 -19 14 -52 11 -9 -1 -19 3 -23 9
-10 16 -27 12 -23 -6z"/>
<path d="M1204 1103 c4 -7 2 -13 -4 -13 -7 0 -9 -8 -5 -20 5 -15 1 -22 -17
-29 -13 -6 -19 -10 -14 -10 5 -1 3 -8 -4 -16 -9 -10 -9 -15 -1 -15 6 0 11 4
11 9 0 5 8 11 18 13 9 3 23 17 31 32 13 24 13 28 -4 44 -10 9 -15 11 -11 5z"/>
<path d="M1413 953 c-35 -5 -40 -18 -34 -90 3 -42 4 -43 40 -43 25 0 32 3 22
9 -8 5 -20 7 -27 4 -6 -2 -15 1 -20 8 -5 8 -3 10 7 4 11 -7 12 -6 3 6 -6 8
-11 31 -13 52 -1 30 2 37 17 37 10 0 23 -5 30 -12 9 -9 12 -7 12 10 0 12 -1
21 -2 20 -2 0 -17 -3 -35 -5z"/>
<path d="M1280 914 c0 -17 -4 -23 -12 -18 -10 6 -10 4 -2 -7 5 -8 11 -30 13
-49 5 -57 9 -47 13 29 1 39 0 71 -4 71 -5 0 -8 -12 -8 -26z"/>
<path d="M1030 922 c0 -5 12 -7 28 -5 25 4 26 3 8 -11 -18 -14 -18 -15 2 -13
29 2 20 31 -11 35 -15 2 -27 -1 -27 -6z"/>
<path d="M1180 870 c0 -5 14 -10 31 -10 17 0 28 4 24 10 -3 6 -17 10 -31 10
-13 0 -24 -4 -24 -10z"/>
<path d="M420 980 c0 -29 3 -50 7 -46 7 7 5 87 -3 95 -2 2 -4 -20 -4 -49z"/>
<path d="M2935 1566 c-9 -20 -13 -41 -10 -46 4 -6 -1 -10 -10 -10 -9 0 -13 -5
-10 -10 5 -8 11 -7 21 1 8 6 14 8 14 3 0 -5 5 -1 11 9 6 9 16 14 22 11 7 -4 9
-3 4 1 -4 5 0 16 9 26 12 13 12 19 3 25 -7 4 -10 3 -7 -2 3 -5 -5 -19 -18 -32
-19 -18 -24 -19 -24 -7 0 9 5 25 11 37 6 11 8 22 5 25 -3 4 -13 -11 -21 -31z"/>
<path d="M70 1524 c0 -6 3 -14 7 -18 19 -19 0 -66 -26 -66 -6 0 -11 -5 -11
-11 0 -5 -5 -7 -12 -3 -7 5 -8 3 -4 -5 5 -7 10 -10 13 -7 8 8 43 -13 43 -25 0
-6 -4 -8 -9 -5 -12 8 -8 -14 7 -39 11 -19 11 -19 12 5 l1 25 10 -24 c5 -13 12
-21 16 -18 3 4 -5 24 -19 45 -19 28 -23 43 -16 55 9 18 28 14 28 -4 0 -6 -4
-7 -10 -4 -19 12 -10 -5 20 -35 32 -33 40 -29 14 8 -14 20 -14 22 4 22 11 0
24 -11 31 -26 6 -15 14 -24 17 -21 3 3 -1 18 -10 35 -8 16 -12 32 -9 36 4 3
-1 6 -11 6 -11 0 -14 -4 -10 -12 5 -8 2 -9 -10 -5 -10 4 -20 7 -22 7 -2 0 -4
7 -4 15 0 9 6 12 18 9 11 -4 9 1 -7 14 -14 11 -31 28 -38 38 -7 10 -13 13 -13
8z"/>
<path d="M1970 1502 c-60 -2 -97 -7 -102 -15 -6 -9 -8 -9 -8 1 0 7 -13 12 -32
11 -28 0 -30 -2 -13 -9 22 -9 -45 -13 -197 -10 -56 1 -88 -3 -88 -9 0 -6 13
-11 29 -11 l29 0 -5 -270 c-3 -148 -1 -270 4 -270 4 0 7 -63 6 -140 l-1 -139
31 6 c18 4 73 7 124 8 l91 0 6 40 c2 22 3 51 1 65 -2 14 -4 55 -4 93 l-1 67
-114 0 c-67 0 -117 4 -121 10 -12 20 29 85 65 102 30 16 32 18 12 18 -14 0
-36 -13 -53 -31 l-29 -31 0 71 c0 71 0 71 28 72 l27 1 -27 11 c-19 7 -28 18
-28 34 0 13 6 23 13 23 9 0 9 2 0 8 -9 5 -12 31 -11 78 1 39 -2 75 -5 81 -4 7
-1 17 6 24 7 7 12 23 9 35 -3 17 2 23 24 28 45 12 197 8 204 -5 5 -7 9 -7 12
3 3 8 20 13 44 12 34 -1 39 -4 42 -27 3 -26 1 -27 -50 -29 l-53 -2 48 -3 47
-4 0 -185 c-1 -161 -3 -184 -16 -173 -8 6 -12 14 -10 17 3 2 -2 11 -10 19 -8
9 -13 22 -10 29 3 8 2 13 -2 13 -29 -5 -39 3 -34 26 3 18 0 25 -12 25 -10 0
-13 -6 -10 -15 4 -9 1 -15 -7 -15 -8 0 0 -9 16 -20 25 -16 27 -20 10 -20 -24
1 -58 24 -48 33 3 4 1 7 -5 7 -7 0 -12 -4 -12 -9 0 -5 -8 -12 -17 -14 -10 -3
-3 -5 15 -6 17 0 32 -5 32 -10 0 -5 10 -11 23 -15 32 -8 76 -47 60 -53 -15 -5
-18 -53 -3 -53 6 0 10 11 10 25 0 17 4 23 14 19 15 -6 29 -143 30 -304 l0 -85
66 5 65 4 -65 6 c-88 7 -53 20 56 20 79 0 84 1 88 23 3 12 11 51 18 87 l14 65
-1 -82 c0 -61 -3 -83 -13 -83 -7 0 -10 -4 -7 -10 4 -6 -12 -10 -41 -10 -56 0
-55 -6 1 -12 22 -3 50 -10 62 -16 12 -7 37 -13 55 -13 32 -2 32 -2 -7 -9 -37
-7 -36 -7 20 -8 98 -1 112 14 22 23 l-79 8 2 81 c2 44 2 109 1 144 l-1 62
-124 0 -123 0 1 40 c0 23 2 36 4 30 2 -5 8 -8 12 -5 5 3 25 -6 46 -20 40 -27
54 -31 54 -15 0 6 -18 17 -40 26 -22 9 -40 22 -40 28 0 18 44 36 88 36 24 0
32 3 24 9 -8 4 -29 6 -48 4 -23 -2 -34 1 -34 9 0 7 -6 2 -13 -11 -13 -27 -43
-49 -52 -39 -8 8 -10 376 -2 384 3 4 4 19 1 34 l-6 27 169 5 c92 3 169 5 170
4 1 -1 4 -123 7 -272 2 -148 6 -318 9 -379 5 -127 2 -142 -22 -122 -9 8 -27
18 -41 22 -21 7 -23 6 -13 -7 7 -8 11 -17 8 -19 -4 -5 18 -9 58 -12 10 -1 17
-9 17 -23 0 -19 7 -22 59 -27 33 -4 85 -2 115 4 31 5 60 8 64 5 4 -2 6 45 4
105 -3 61 0 122 6 139 l11 30 -117 0 c-64 0 -123 4 -129 8 -10 6 -8 16 5 42
21 43 75 80 116 80 40 0 113 -46 125 -80 8 -22 9 -20 9 18 0 23 -5 42 -10 42
-5 0 -6 -4 -3 -10 3 -5 2 -10 -3 -10 -16 0 -22 13 -11 26 8 10 5 11 -13 7 -17
-3 -19 -2 -9 5 10 7 10 11 1 17 -7 4 -16 2 -20 -5 -9 -15 -30 -4 -30 16 0 8
-5 14 -10 14 -6 0 -9 -5 -8 -12 4 -17 -82 -31 -101 -15 -14 10 -14 10 -4 -3 9
-12 6 -21 -18 -48 l-29 -32 0 67 c-1 104 -1 364 0 396 l1 27 107 0 c59 0 137
3 175 7 64 6 67 5 67 -16 0 -24 0 -24 37 -10 l28 11 -23 9 c-18 7 -22 14 -17
29 7 21 5 21 -307 18 -172 -2 -356 -4 -408 -6z m-206 -618 c36 -5 46 -11 46
-25 0 -14 -8 -19 -32 -20 -31 -2 -31 -2 -5 -6 15 -2 27 -9 27 -14 0 -6 3 -8 8
-6 4 3 8 -24 9 -59 l1 -64 -41 -1 c-23 -1 -60 -2 -82 -4 -74 -6 -75 -5 -75 99
0 51 3 96 7 99 8 9 76 9 137 1z m341 -14 c3 0 3 5 0 10 -8 13 -5 13 34 -1 27
-10 31 -15 27 -38 -2 -14 -10 -56 -16 -93 -13 -73 -29 -86 -47 -40 -8 18 -11
21 -10 7 2 -18 -4 -20 -52 -20 -67 0 -80 15 -65 74 9 32 8 41 -3 45 -18 7 -17
46 1 46 8 0 17 -10 19 -22 3 -17 5 -15 6 9 1 28 5 32 34 35 17 2 40 0 49 -4 9
-5 19 -8 23 -8z m404 1 c3 -1 -9 -16 -27 -33 -28 -30 -36 -33 -82 -30 -59 5
-82 29 -54 57 13 13 31 15 88 11 39 -2 73 -4 75 -5z m9 -91 c1 -44 -3 -60 -13
-60 -20 0 -26 91 -6 108 8 6 16 12 16 12 1 0 3 -27 3 -60z m-90 -13 c-3 -30
-5 -32 -40 -29 l-36 3 8 -36 c7 -32 6 -35 -15 -35 -28 0 -37 21 -16 36 13 10
13 14 2 28 -11 13 -11 20 2 39 11 17 25 23 56 24 42 2 42 2 39 -30z m22 -47
c-31 -7 -29 -8 23 -9 53 -1 57 -3 57 -25 0 -24 -21 -36 -67 -36 -16 0 -23 6
-23 19 0 11 -4 23 -10 26 -6 4 -10 -5 -10 -19 0 -38 -17 -31 -22 9 -4 37 3 43
57 43 29 -1 29 -1 -5 -8z"/>
<path d="M4 1465 c0 -39 11 -35 21 8 5 20 3 27 -7 27 -9 0 -14 -12 -14 -35z"/>
<path d="M2810 1481 c0 -11 -4 -22 -9 -25 -4 -3 -5 -24 -1 -46 7 -39 7 -40
-19 -33 -14 3 -38 14 -53 24 -14 11 -30 19 -35 19 -4 0 -1 -5 7 -10 8 -5 15
-15 15 -22 1 -7 7 -12 14 -10 7 1 25 -5 38 -14 23 -15 25 -21 20 -64 -5 -41
-3 -51 15 -66 12 -11 18 -13 13 -5 -6 11 -4 13 11 7 50 -19 150 -50 157 -48 4
1 7 -9 7 -23 0 -31 -9 -31 -46 -3 -16 12 -23 15 -17 7 7 -9 10 -19 6 -22 -3
-4 1 -7 10 -7 9 0 18 -4 21 -9 3 -5 -12 -4 -34 1 -22 6 -40 16 -40 24 0 7 -6
11 -14 8 -8 -3 -19 3 -26 16 -6 11 -16 18 -22 14 -7 -4 -5 -10 6 -16 9 -5 16
-15 16 -22 0 -6 30 -21 66 -31 46 -13 69 -25 74 -39 l9 -21 0 20 c1 12 -4 26
-11 33 -9 9 -9 12 0 12 17 0 15 56 -3 108 -15 43 -12 68 6 57 5 -3 6 1 2 10
-4 13 -8 14 -14 4 -10 -17 -15 -11 -24 31 -6 29 -5 33 6 23 7 -7 17 -13 23
-13 5 0 2 6 -7 13 -9 6 -17 26 -19 42 -2 17 -7 33 -13 37 -6 5 -4 8 5 8 13 0
13 1 0 10 -10 6 -11 10 -2 10 6 0 12 5 12 10 0 6 -9 10 -21 10 -18 0 -20 -4
-14 -32 4 -18 11 -37 16 -42 16 -17 10 -28 -6 -12 -8 8 -18 29 -21 46 -8 36
-16 43 -40 33 -15 -6 -15 -7 4 -14 14 -5 22 -17 22 -31 0 -19 24 -103 48 -168
3 -8 6 -19 7 -25 0 -5 4 -16 8 -22 12 -18 -27 -17 -43 1 -6 8 -18 12 -26 9 -8
-3 -24 3 -35 13 -12 11 -23 18 -25 17 -14 -8 -30 13 -32 43 l-3 36 29 -23 c16
-13 27 -31 25 -39 -4 -12 -3 -12 5 -1 8 11 12 10 23 -5 8 -11 19 -20 24 -21 6
-1 19 -5 30 -9 16 -5 15 -2 -7 20 -15 14 -31 26 -36 26 -5 0 -15 6 -21 14 -10
12 -8 19 8 35 27 27 27 51 0 51 -11 0 -17 -5 -14 -10 4 -6 11 -8 16 -5 16 10
9 -9 -12 -34 -19 -23 -20 -23 -39 -6 -22 20 -27 40 -7 29 10 -6 10 -4 0 7 -14
14 -18 73 -5 65 4 -2 6 11 4 30 -5 37 -12 46 -12 15z"/>
<path d="M458 1483 c23 -2 61 -2 85 0 23 2 4 4 -43 4 -47 0 -66 -2 -42 -4z"/>
<path d="M2360 1420 c-8 -5 -10 -10 -5 -10 6 0 4 -4 -4 -9 -9 -6 2 -8 30 -7
24 1 50 -2 57 -7 7 -6 12 -6 12 1 0 6 -5 14 -11 18 -8 5 -8 9 1 14 7 4 0 7
-16 7 -16 0 -23 -2 -16 -4 21 -8 13 -20 -13 -20 -26 0 -34 12 -12 20 6 3 8 6
2 6 -5 0 -17 -4 -25 -9z"/>
<path d="M1646 1409 c2 -5 11 -6 19 -2 8 3 15 0 15 -6 0 -10 -13 -15 -32 -12
-4 0 -6 -8 -5 -19 1 -10 4 -18 7 -18 18 2 30 -3 30 -12 0 -6 -8 -10 -17 -8
-14 2 -18 -4 -18 -27 0 -24 4 -29 19 -27 17 3 18 2 7 -12 -7 -9 -16 -14 -20
-11 -4 2 -7 -16 -6 -41 0 -24 -3 -44 -7 -44 -4 0 -8 -5 -8 -11 0 -8 5 -8 15 1
8 7 15 8 15 3 0 -5 18 -10 40 -10 25 0 40 4 39 11 -4 36 13 51 25 20 3 -8 2
-12 -4 -9 -5 3 -7 0 -4 -8 7 -21 44 -9 44 14 0 10 -5 21 -12 25 -7 4 -8 3 -4
-4 5 -8 2 -10 -9 -6 -12 5 -13 9 -4 20 21 25 -3 15 -28 -13 -20 -21 -27 -24
-35 -12 -8 11 -9 11 -5 -3 7 -19 -19 -33 -29 -16 -4 6 -3 8 3 5 15 -10 7 44
-9 54 -20 14 11 30 33 18 13 -6 22 -4 34 8 13 13 19 13 25 4 5 -9 8 -3 8 14 0
17 -3 23 -8 14 -6 -9 -12 -8 -25 5 -16 15 -19 15 -35 1 -15 -14 -18 -13 -35 5
-10 11 -15 23 -12 27 4 3 7 0 7 -7 0 -10 3 -11 11 -3 6 6 19 9 28 6 14 -4 14
-3 1 6 -13 10 -13 12 0 22 13 9 13 10 -1 6 -9 -3 -22 -1 -30 4 -12 8 -12 10 0
18 8 5 19 8 25 7 6 -2 8 -1 4 1 -16 9 -7 25 9 19 10 -4 14 -3 9 1 -10 10 -77
12 -70 2z m83 -145 c-9 -11 -15 -11 -25 -3 -10 8 -11 14 -1 24 17 19 42 -2 26
-21z"/>
<path d="M2015 1395 c-24 -23 -25 -30 -25 -149 0 -111 -2 -125 -17 -128 -10
-2 23 -2 72 0 50 2 92 7 95 11 3 3 3 59 0 123 -5 106 -7 119 -29 142 -31 33
-65 33 -96 1z m85 -15 c17 -17 20 -31 17 -86 -2 -64 -3 -65 -27 -62 -23 4 -26
1 -22 -24 4 -28 -3 -33 -33 -21 -15 5 -14 8 6 20 13 8 16 12 7 9 -10 -3 -18
-1 -18 4 0 6 6 10 13 10 6 1 1 7 -13 15 -16 9 -20 15 -10 15 10 1 11 3 3 7 -8
3 -13 24 -13 53 0 39 4 52 22 64 30 21 44 20 68 -4z m-2 -233 c-17 -4 -42 -7
-57 -5 -23 3 -21 5 19 18 31 10 49 12 56 5 9 -7 3 -12 -18 -18z"/>
<path d="M2649 1397 c0 -9 0 -37 0 -62 0 -75 1 -85 9 -85 8 0 4 151 -4 159 -2
2 -4 -3 -5 -12z"/>
<path d="M0 1383 c0 -8 4 -12 9 -8 5 3 13 1 16 -5 4 -6 1 -9 -6 -8 -6 2 -14
-3 -16 -10 -4 -10 1 -10 22 0 15 7 22 14 16 16 -6 2 -11 9 -11 16 0 7 -7 13
-15 13 -8 0 -15 -7 -15 -14z"/>
<path d="M1870 1359 c-8 -10 -21 -20 -29 -22 -11 -2 -9 -5 7 -9 16 -5 22 -2
22 10 0 15 2 15 10 2 8 -13 10 -12 10 3 0 10 5 15 10 12 6 -3 10 -2 10 3 0 19
-27 20 -40 1z"/>
<path d="M2378 1366 c-7 -7 -18 -11 -23 -9 -6 2 -11 -6 -11 -17 0 -26 4 -25
28 5 16 21 23 23 34 14 11 -9 12 -15 3 -25 -9 -11 -15 -11 -25 -3 -10 8 -14 8
-14 0 0 -6 5 -11 10 -11 6 0 10 -5 10 -11 0 -6 -6 -9 -13 -6 -21 8 -39 -7 -31
-26 8 -22 25 -12 18 11 -5 13 -4 14 4 3 6 -9 12 -10 16 -3 4 6 14 9 24 6 14
-5 14 -4 3 4 -12 9 -12 13 2 26 18 18 14 41 -8 50 -8 3 -20 -1 -27 -8z"/>
<path d="M2465 1346 c0 -26 4 -32 20 -31 14 1 20 10 22 28 1 15 -2 29 -6 32
-5 2 -7 -9 -5 -25 3 -25 1 -28 -10 -18 -7 7 -12 18 -9 24 2 7 1 14 -4 17 -4 3
-8 -9 -8 -27z"/>
<path d="M206 1360 c5 -8 9 -22 9 -30 0 -9 7 -14 19 -12 11 2 15 -1 11 -7 -3
-6 -1 -11 4 -11 19 0 12 15 -21 46 -17 16 -27 22 -22 14z"/>
<path d="M914 1353 c-1 -10 -4 -36 -8 -58 l-6 -40 15 45 c8 25 15 51 15 58 0
19 -16 14 -16 -5z"/>
<path d="M1736 1331 c-3 -4 8 -7 24 -6 27 2 28 0 26 -42 -1 -23 1 -48 5 -54 3
-6 6 15 5 46 -1 55 -2 58 -28 61 -15 1 -30 -1 -32 -5z"/>
<path d="M1828 1293 c6 -2 12 -9 12 -14 0 -6 -4 -8 -9 -4 -6 3 -9 -3 -8 -14 0
-11 5 -17 11 -14 5 4 7 -1 3 -9 -4 -11 2 -18 20 -22 20 -6 23 -9 12 -22 -10
-12 -9 -13 6 -8 13 5 16 4 11 -4 -4 -7 -1 -12 8 -12 9 0 16 5 16 10 0 6 -4 10
-10 10 -5 0 -10 9 -10 20 0 11 -3 19 -7 19 -23 -4 -33 3 -33 21 0 11 5 20 11
20 6 0 4 7 -5 15 -8 8 -21 15 -28 14 -10 0 -10 -2 0 -6z"/>
<path d="M2478 1293 c6 -3 12 -9 12 -15 0 -6 -6 -8 -14 -5 -10 4 -12 -2 -10
-23 3 -22 0 -28 -10 -24 -8 3 -17 1 -20 -4 -6 -11 42 -7 52 4 4 4 2 9 -5 11
-10 4 -10 7 0 18 8 8 16 10 24 4 7 -6 13 -6 17 -1 3 6 -2 13 -11 16 -14 6 -15
9 -4 15 9 6 4 8 -15 8 -16 0 -23 -2 -16 -4z"/>
<path d="M2374 1262 c-19 -18 -18 -23 4 -15 14 6 15 4 4 -9 -7 -9 -24 -14 -40
-12 -15 2 -20 1 -11 -2 17 -5 32 -50 20 -57 -3 -2 -1 -3 5 -1 6 1 17 -3 23 -9
6 -6 11 -7 11 -3 0 5 -7 14 -16 20 -17 13 -9 47 10 45 23 -3 36 1 36 12 0 8
-4 8 -14 0 -11 -9 -13 -6 -13 14 0 19 3 23 12 15 9 -7 14 -7 18 3 6 17 -32 17
-49 -1z"/>
<path d="M2680 1253 c0 -5 5 -14 12 -21 7 -7 8 -12 4 -12 -5 0 -3 -6 3 -14 6
-8 10 -19 9 -26 -3 -10 78 -43 136 -55 26 -6 27 -7 16 -46 -6 -19 -10 -56 -9
-84 2 -41 0 -50 -14 -49 -10 1 -17 -6 -17 -17 0 -12 7 -19 20 -19 11 0 20 -4
20 -8 0 -5 6 -17 14 -27 13 -18 13 -17 10 10 -10 67 -8 107 3 117 9 7 10 15 2
30 -8 16 -7 22 8 33 16 12 19 11 25 -8 6 -22 12 -7 9 22 -2 7 2 10 8 6 6 -3
11 -23 11 -43 0 -27 -3 -33 -10 -22 -11 18 -6 -74 6 -104 6 -16 4 -18 -10 -13
-10 4 -15 3 -11 -3 4 -6 -5 -24 -19 -40 -24 -29 -25 -30 -36 -10 -14 26 -33
26 -25 0 5 -14 2 -20 -10 -20 -20 0 -32 30 -16 40 10 5 9 9 -3 13 -9 4 -16 13
-16 21 0 20 -39 41 -51 29 -13 -13 -25 -91 -13 -80 5 5 9 14 9 20 0 19 34 20
42 1 7 -18 -23 -48 -38 -38 -5 3 -9 1 -9 -4 0 -6 15 -9 33 -8 28 1 32 -3 35
-26 3 -22 0 -26 -17 -21 -12 3 -21 9 -21 14 0 5 -14 9 -31 9 -17 0 -28 -4 -24
-10 3 -5 0 -10 -7 -10 -8 0 -14 9 -15 20 -1 14 5 20 20 21 l22 0 -21 9 c-28
11 -33 41 -41 225 -3 82 -10 159 -14 170 -5 11 -6 -12 -2 -54 l6 -74 -27 5
c-14 3 -26 1 -26 -3 0 -5 5 -10 10 -10 6 -1 14 -2 19 -3 19 -2 22 -15 26 -102
2 -49 7 -118 10 -154 17 -217 17 -209 -2 -208 -69 2 -271 -17 -267 -24 4 -6
62 -7 147 -3 141 6 194 18 166 36 -19 12 -13 11 47 -5 41 -11 63 -11 115 -1
l64 12 -90 8 c-101 9 -131 17 -133 37 -1 7 -4 25 -8 41 -4 19 -2 27 7 27 11 0
11 2 -1 10 -11 7 -6 10 20 10 26 0 31 -3 20 -10 -10 -7 9 -10 64 -10 62 0 76
3 68 13 -8 10 -2 12 31 9 23 -3 48 -9 55 -15 16 -12 26 -3 19 18 -4 8 -18 15
-31 15 -34 0 -24 27 12 33 18 3 12 5 -18 7 -25 1 -48 2 -52 1 -12 -2 -10 17 2
24 6 3 10 1 10 -5 0 -6 5 -8 10 -5 6 3 10 15 10 27 0 18 2 19 16 7 14 -12 16
-8 13 31 -5 80 0 142 11 135 6 -4 8 -11 5 -16 -4 -5 -1 -9 4 -9 37 0 -36 79
-89 97 -69 24 -130 49 -130 55 0 4 -7 5 -15 2 -9 -4 -15 0 -15 9 0 10 11 17
28 19 l27 3 -33 12 c-18 7 -30 8 -27 3 3 -6 2 -18 -4 -27 -9 -16 -11 -13 -17
14 -6 30 -34 68 -34 46z m250 -446 c0 -9 -21 -17 -55 -24 -54 -9 -55 -9 -55
14 0 21 4 23 55 23 39 0 55 -4 55 -13z"/>
<path d="M898 1226 c-3 -16 0 -44 8 -62 11 -25 11 -34 1 -37 -6 -3 -4 -6 7 -6
15 -1 17 4 11 27 -5 15 -11 45 -14 67 -7 39 -7 39 -13 11z"/>
<path d="M2509 1233 c-9 -62 3 -92 33 -80 8 4 7 6 -4 6 -17 1 -24 28 -19 69 2
13 -8 17 -10 5z"/>
<path d="M388 1198 c4 -14 19 -36 35 -48 37 -29 33 -13 -8 35 -31 36 -34 37
-27 13z"/>
<path d="M2408 1188 c-9 -24 2 -40 18 -27 10 8 14 8 14 0 0 -16 17 -14 23 3 4
10 -3 12 -25 10 -26 -3 -29 -2 -18 11 7 9 8 15 2 15 -5 0 -12 -6 -14 -12z"/>
<path d="M940 1025 c0 -43 3 -76 6 -72 3 3 6 36 6 72 0 36 -3 69 -6 72 -3 4
-6 -29 -6 -72z"/>
<path d="M2120 1042 c0 -4 13 -15 29 -25 15 -9 36 -31 45 -49 15 -28 17 -29
13 -8 -8 47 -12 55 -37 72 -26 19 -50 23 -50 10z"/>
<path d="M1800 1015 c27 -29 37 -31 37 -10 0 8 -2 13 -5 10 -2 -2 -11 2 -19
10 -25 26 -38 16 -13 -10z"/>
<path d="M2593 992 c2 -31 6 -42 16 -40 8 2 16 10 19 18 3 8 1 11 -4 7 -5 -5
-14 7 -20 25 l-12 33 1 -43z"/>
<path d="M9 990 c-6 -33 9 -80 27 -80 18 0 18 27 0 37 -8 4 -16 22 -18 38 -4
29 -4 29 -9 5z"/>
<path d="M1673 978 c-5 -10 51 -8 92 2 23 6 16 7 -28 6 -33 0 -61 -4 -64 -8z"/>
<path d="M5 890 c-6 -9 1 -14 18 -11 4 0 7 -3 7 -9 0 -5 -7 -10 -15 -10 -8 0
-15 -5 -15 -11 0 -7 7 -8 18 -4 9 4 26 9 37 12 16 4 17 3 5 -6 -12 -8 -6 -11
25 -10 35 1 37 2 15 9 -24 8 -24 8 -3 9 16 1 21 6 17 16 -4 10 -19 14 -43 13
-21 0 -43 2 -49 6 -6 3 -13 2 -17 -4z"/>
<path d="M90 802 c0 -7 -19 -13 -47 -14 l-48 -1 44 -4 c41 -4 73 9 58 24 -4 3
-7 1 -7 -5z"/>
<path d="M221 773 c0 -7 -9 -13 -18 -13 -15 0 -16 -2 -3 -10 11 -7 5 -9 -22
-6 -24 3 -41 -1 -48 -9 -10 -12 -3 -13 42 -8 29 3 54 7 56 9 2 1 2 13 -1 26
-2 12 -5 17 -6 11z"/>
<path d="M137 704 c-2 -2 -33 -4 -70 -5 -38 -1 -64 -6 -61 -11 3 -5 19 -6 35
-3 29 7 41 -8 17 -19 -7 -3 5 -3 27 1 22 3 46 11 54 17 12 9 13 8 6 -3 -6 -11
-3 -13 16 -8 13 4 32 7 42 7 9 0 17 6 17 14 0 9 -13 13 -40 13 -22 0 -41 -1
-43 -3z"/>
<path d="M930 683 c0 -32 2 -33 38 -32 32 1 33 2 12 8 -14 4 -30 18 -37 31
-13 25 -13 25 -13 -7z"/>
<path d="M2880 661 c26 -15 120 -24 120 -12 0 6 -8 12 -17 12 -10 1 -40 3 -68
5 -31 2 -44 0 -35 -5z"/>
<path d="M830 637 c-17 -14 -19 -18 -7 -14 10 4 32 7 49 7 30 0 36 19 8 28 -9
3 -10 0 -4 -9 6 -11 5 -12 -7 -2 -11 9 -19 7 -39 -10z"/>
<path d="M1868 633 c6 -2 10 -9 6 -14 -3 -5 14 -9 38 -9 42 1 43 1 18 15 -14
8 -36 14 -50 14 -14 0 -19 -3 -12 -6z"/>
<path d="M1148 623 c28 -2 76 -2 105 0 28 2 5 3 -53 3 -58 0 -81 -1 -52 -3z"/>
<path d="M2925 620 l-40 -7 35 -1 c19 0 46 4 60 8 32 10 2 10 -55 0z"/>
<path d="M2167 579 c-38 -4 -72 -11 -75 -14 -4 -4 22 -4 58 0 36 5 103 11 150
15 l85 7 -75 0 c-41 0 -106 -3 -143 -8z"/>
<path d="M1790 573 c-52 -2 -99 -8 -104 -13 -6 -6 29 -8 95 -6 57 2 133 5 169
6 49 1 59 4 40 10 -26 8 -35 8 -200 3z"/>
<path d="M2577 554 c-1 -1 -29 -5 -62 -8 -33 -3 -103 -11 -155 -17 -52 -6
-117 -10 -143 -10 -32 1 -46 -2 -42 -9 7 -11 102 -12 120 -1 6 3 26 7 45 8 19
1 64 4 100 7 36 3 99 6 140 6 48 1 68 4 55 9 -20 8 -20 8 0 14 11 3 3 5 -18 4
-21 -1 -39 -2 -40 -3z"/>
<path d="M2909 455 c-3 -2 -33 -5 -67 -6 -35 -1 -65 -7 -69 -12 -4 -7 19 -8
68 -3 41 4 91 9 111 10 55 4 59 16 6 16 -24 0 -47 -2 -49 -5z"/>
<path d="M253 439 c24 -14 21 -29 -5 -30 -16 -1 -12 -4 12 -9 19 -5 39 -6 45
-2 5 4 15 7 20 8 6 1 26 5 45 9 49 9 52 17 5 14 -27 -2 -39 1 -37 9 3 18 -11
14 -30 -7 -9 -11 -13 -23 -10 -27 4 -4 1 -4 -6 0 -7 4 -10 11 -7 16 3 5 -3 14
-14 19 -25 14 -42 14 -18 0z"/>
<path d="M2525 9 c-18 -4 9 -7 65 -7 52 0 91 1 85 3 -22 8 -122 10 -150 4z"/>
</g>
</svg>
