<?xml version="1.0" standalone="no"?>
<!DOCTYPE svg PUBLIC "-//W3C//DTD SVG 20010904//EN"
 "http://www.w3.org/TR/2001/REC-SVG-20010904/DTD/svg10.dtd">
<svg version="1.0" xmlns="http://www.w3.org/2000/svg"
 width="200.000000pt" height="200.000000pt" viewBox="0 0 200.000000 200.000000"
 preserveAspectRatio="xMidYMid meet">

<g transform="translate(0.000000,200.000000) scale(0.100000,-0.100000)"
fill="#000000" stroke="none">
<path d="M970 1935 c0 -7 30 -13 34 -7 3 4 -4 9 -15 9 -10 1 -19 0 -19 -2z"/>
<path d="M830 1915 c0 -7 30 -13 34 -7 3 4 -4 9 -15 9 -10 1 -19 0 -19 -2z"/>
<path d="M1166 1912 c-2 -4 4 -8 14 -8 10 0 16 4 14 8 -3 4 -9 8 -14 8 -5 0
-11 -4 -14 -8z"/>
<path d="M807 1904 c-9 -9 4 -35 14 -28 5 3 9 0 9 -5 0 -6 7 -11 15 -11 8 0
15 3 15 8 -1 11 -47 42 -53 36z"/>
<path d="M976 1895 c4 -8 14 -15 23 -15 14 -1 13 -3 -3 -15 -11 -8 -14 -15 -8
-15 7 0 12 -5 12 -11 0 -5 -4 -7 -10 -4 -5 3 -10 1 -10 -4 0 -6 8 -11 18 -12
14 0 14 -2 -3 -9 -11 -4 -27 -17 -35 -29 -10 -14 -24 -21 -45 -20 l-30 1 30 8
c22 6 25 8 10 10 -17 2 -17 3 5 10 14 4 19 8 13 9 -7 1 -15 0 -17 -1 -8 -5
-46 35 -46 49 0 15 -6 15 -35 3 -18 -7 -19 -8 -2 -15 9 -4 17 -11 17 -17 0 -5
-6 -6 -12 -3 -7 4 -4 -1 6 -9 15 -12 22 -13 27 -4 5 7 11 10 14 6 3 -3 -2 -13
-11 -22 -10 -10 -14 -26 -11 -41 5 -29 1 -31 -19 -11 -9 10 -10 17 -4 21 6 4
8 11 5 16 -4 5 0 9 7 9 10 0 10 2 -1 9 -19 12 -44 2 -34 -13 5 -6 8 -28 8 -48
-1 -21 2 -38 7 -38 4 0 5 -8 2 -17 -5 -14 -4 -15 4 -4 6 8 8 20 5 26 -3 9 4
11 22 7 17 -3 31 1 36 9 8 12 11 12 20 -1 9 -13 10 -12 5 3 -4 13 0 17 22 16
18 0 22 -3 12 -7 -8 -4 -16 -13 -18 -20 -2 -9 2 -11 10 -5 7 4 40 9 73 9 33 1
61 7 63 13 2 6 8 11 13 11 6 0 7 -4 4 -10 -3 -5 -2 -10 3 -10 14 0 10 -29 -6
-35 -8 -3 -11 -12 -8 -20 3 -8 0 -15 -7 -16 -7 0 -3 -4 8 -9 18 -8 17 -9 -7
-9 -28 -1 -51 20 -30 27 7 2 12 8 12 14 0 6 -6 5 -15 -2 -9 -7 -14 -19 -11
-27 3 -7 1 -13 -4 -13 -6 0 -10 13 -10 28 0 15 -5 33 -11 39 -18 18 -39 3 -39
-27 0 -44 -11 -46 -69 -13 -2 2 2 9 9 18 11 13 9 15 -11 14 -36 -1 -65 -14
-51 -23 7 -4 9 -12 6 -18 -4 -6 0 -15 7 -20 10 -6 7 -7 -10 -3 -18 6 -22 4
-16 -6 5 -8 -1 -5 -12 6 -11 11 -18 26 -15 33 3 8 -1 10 -12 6 -10 -4 -16 -1
-17 7 0 8 -2 21 -4 30 -2 12 3 15 19 12 15 -4 17 -2 7 5 -10 7 -10 11 -1 14 9
3 8 9 -4 21 -10 9 -12 17 -6 17 6 0 9 4 6 8 -2 4 -21 7 -40 7 -27 -1 -33 1
-25 11 7 8 6 14 -2 20 -8 5 -9 3 -4 -6 6 -10 4 -12 -8 -7 -25 9 -29 -8 -13
-48 10 -24 20 -34 27 -29 9 5 10 2 6 -9 -4 -10 -2 -17 4 -17 6 0 8 -7 5 -15
-3 -9 1 -18 9 -21 8 -3 17 -14 20 -24 3 -10 14 -20 23 -22 13 -3 12 -5 -5 -10
-12 -3 -22 -3 -21 1 2 17 -3 29 -16 34 -11 4 -11 -1 0 -31 7 -21 19 -37 27
-37 9 0 19 -3 22 -7 4 -4 13 -4 21 -1 8 3 21 0 29 -7 8 -7 24 -10 35 -7 11 3
23 1 26 -4 3 -5 11 -9 17 -9 7 0 6 4 -3 10 -9 6 -10 10 -3 10 6 0 15 -4 18
-10 3 -5 11 -10 16 -10 6 0 7 5 4 10 -3 6 -1 10 4 10 6 0 11 -4 11 -10 0 -5 5
-10 11 -10 5 0 7 5 4 10 -9 14 8 12 24 -2 11 -10 13 -10 7 0 -4 6 -2 12 3 12
6 0 11 -4 11 -10 0 -5 5 -10 11 -10 5 0 8 4 4 9 -3 6 12 8 37 5 32 -3 39 -2
28 6 -11 8 -6 9 21 4 23 -3 39 -2 44 5 3 6 10 9 15 6 5 -3 14 4 20 15 6 11 8
20 5 20 -3 0 2 14 11 32 11 22 13 33 5 36 -6 2 -11 8 -11 13 0 6 4 7 10 4 6
-4 7 1 3 11 -4 11 -3 15 4 11 7 -5 9 1 5 15 -3 15 -2 19 7 14 13 -8 43 53 34
68 -4 5 -1 6 4 3 6 -4 17 1 24 10 9 11 9 14 2 10 -7 -4 -21 -2 -32 5 -11 7
-24 8 -28 4 -4 -5 -2 -11 5 -14 10 -3 7 -8 -9 -16 -28 -14 -36 -36 -13 -36 16
0 16 -1 1 -17 -8 -10 -15 -22 -14 -28 1 -15 -29 -18 -50 -6 -14 8 -11 10 17 6
27 -4 30 -3 15 4 -16 8 -17 10 -3 10 16 1 20 23 5 29 -4 1 -7 -1 -6 -5 1 -9
-32 -26 -38 -19 -4 3 -1 6 5 6 7 0 12 9 12 21 0 11 -4 18 -9 15 -5 -3 -11 12
-13 34 -2 22 0 40 5 40 4 0 6 4 3 9 -4 5 -3 11 1 14 5 2 2 2 -5 0 -8 -1 -23
-3 -35 -3 -17 0 -19 -2 -8 -9 11 -7 10 -13 -8 -32 -21 -22 -21 -24 -4 -27 40
-7 44 -11 33 -32 -8 -15 -8 -20 1 -20 7 0 10 -13 7 -35 -4 -33 4 -46 17 -25 3
5 12 7 20 4 8 -4 12 -10 9 -15 -3 -5 -11 -7 -17 -3 -7 3 -3 -2 7 -10 17 -14
15 -20 -5 -18 -4 1 -9 -13 -13 -30 -5 -24 -9 -28 -19 -19 -8 6 -18 7 -22 3 -5
-4 -5 -1 -1 6 4 6 3 12 -3 12 -6 0 -8 6 -5 14 3 8 1 24 -6 35 -9 17 -8 21 5
21 9 0 13 5 10 10 -4 6 -2 17 5 25 8 9 8 15 0 20 -6 3 -8 11 -5 16 4 5 -2 9
-12 10 -16 0 -16 1 2 9 17 7 14 9 -13 9 -20 1 -31 -3 -27 -9 3 -5 2 -10 -4
-10 -5 0 -11 5 -13 12 -3 9 -6 9 -12 0 -5 -8 3 -14 23 -18 28 -6 45 -34 20
-34 -5 0 -8 4 -5 9 3 5 -10 11 -30 13 -19 2 -37 1 -39 -2 -6 -10 9 -27 30 -33
13 -3 9 -5 -12 -6 -34 -1 -38 5 -27 46 4 13 10 20 16 17 5 -3 2 11 -7 33 -9
21 -19 44 -22 51 -3 6 -1 12 5 12 5 0 12 7 16 15 4 11 -2 15 -20 15 -17 0 -23
-4 -18 -12 6 -10 4 -10 -7 0 -18 17 -30 15 -23 -3z m64 -89 c0 -8 -4 -17 -9
-21 -6 -3 -9 4 -8 15 1 23 17 28 17 6z m-47 -40 c4 -10 0 -12 -14 -9 -10 3
-16 9 -13 14 8 13 21 11 27 -5z m-209 -27 c-3 -5 0 -9 7 -9 7 0 10 -2 8 -5 -3
-2 -16 -1 -29 2 -22 6 -23 7 -4 15 14 6 12 7 -11 4 -27 -4 -28 -3 -11 10 14
10 23 11 33 3 7 -6 10 -15 7 -20z m179 4 c-7 -2 -21 -2 -30 0 -10 3 -4 5 12 5
17 0 24 -2 18 -5z m130 0 c-7 -2 -19 -2 -25 0 -7 3 -2 5 12 5 14 0 19 -2 13
-5z m148 -110 c-12 -20 -14 -14 -5 12 4 9 9 14 11 11 3 -2 0 -13 -6 -23z"/>
<path d="M713 1827 c-24 -11 -29 -22 -14 -31 8 -6 48 31 40 38 -2 2 -14 -1
-26 -7z"/>
<path d="M815 1680 c3 -5 8 -10 11 -10 2 0 4 5 4 10 0 6 -5 10 -11 10 -5 0 -7
-4 -4 -10z"/>
<path d="M1160 1665 c0 -5 5 -17 10 -25 5 -8 10 -10 10 -5 0 6 -5 17 -10 25
-5 8 -10 11 -10 5z"/>
<path d="M840 1640 c0 -5 5 -10 10 -10 6 0 10 5 10 10 0 6 -4 10 -10 10 -5 0
-10 -4 -10 -10z"/>
<path d="M972 1430 c-56 -65 -130 -94 -222 -87 -36 3 -75 8 -86 12 -27 9 -32
-11 -40 -165 -5 -90 -3 -129 10 -180 20 -78 63 -169 108 -228 37 -48 142 -131
231 -181 l57 -33 43 25 c57 34 186 145 225 195 92 116 119 261 91 484 l-12 88
-82 -6 c-110 -9 -172 11 -235 76 l-47 48 -41 -48z m185 -76 c39 -11 80 -15
133 -12 l78 5 5 -51 c25 -221 18 -295 -37 -413 -41 -85 -95 -147 -191 -218
-106 -79 -108 -79 -157 -54 -103 52 -203 136 -259 216 -73 105 -110 281 -89
427 l11 81 107 0 c124 0 167 17 223 84 l33 39 44 -44 c31 -32 59 -48 99 -60z"/>
<path d="M1253 1284 c-3 -8 0 -21 7 -27 10 -9 11 -9 6 1 -4 7 -2 19 4 27 9 11
9 15 1 15 -6 0 -14 -7 -18 -16z"/>
<path d="M1235 1229 c5 -6 55 0 55 7 0 3 -13 3 -29 2 -16 -1 -28 -5 -26 -9z"/>
<path d="M815 1150 c-3 -6 1 -7 9 -4 18 7 21 14 7 14 -6 0 -13 -4 -16 -10z"/>
<path d="M1240 1120 c-13 -8 -13 -10 2 -10 9 0 20 5 23 10 8 13 -5 13 -25 0z"/>
<path d="M760 1112 c0 -12 19 -26 26 -19 2 2 -2 10 -11 17 -9 8 -15 8 -15 2z"/>
<path d="M776 1065 c-7 -18 4 -84 16 -91 5 -3 6 5 3 19 -4 14 -2 28 4 31 16
10 13 43 -3 49 -8 3 -17 0 -20 -8z"/>
<path d="M901 1030 c-2 -49 -23 -102 -52 -132 -16 -17 -29 -40 -29 -52 0 -12
4 -16 8 -11 4 6 19 16 35 23 42 18 62 83 47 157 -5 27 -8 32 -9 15z"/>
<path d="M740 1030 c0 -5 5 -10 10 -10 6 0 10 5 10 10 0 6 -4 10 -10 10 -5 0
-10 -4 -10 -10z"/>
<path d="M1225 1030 c-9 -14 1 -27 26 -33 16 -4 19 -2 15 10 -4 11 -2 13 9 9
8 -3 15 -1 15 5 0 7 -12 8 -31 4 -22 -5 -29 -4 -25 4 4 6 5 11 2 11 -3 0 -8
-4 -11 -10z"/>
<path d="M1210 981 c0 -17 18 -21 24 -6 3 9 0 15 -9 15 -8 0 -15 -4 -15 -9z"/>
<path d="M1176 971 c-3 -5 1 -11 9 -15 15 -6 29 7 18 18 -9 9 -21 8 -27 -3z"/>
<path d="M785 950 c-3 -5 -1 -10 4 -10 6 0 11 5 11 10 0 6 -2 10 -4 10 -3 0
-8 -4 -11 -10z"/>
<path d="M870 756 c0 -9 5 -16 10 -16 6 0 10 4 10 9 0 6 -4 13 -10 16 -5 3
-10 -1 -10 -9z"/>
<path d="M1002 717 c-12 -13 -22 -33 -22 -44 0 -12 -5 -23 -12 -25 -8 -3 -6
-7 4 -10 12 -5 18 1 23 20 7 25 8 26 15 7 8 -18 9 -18 9 -2 1 11 5 15 13 11 7
-5 9 -2 5 8 -3 9 0 22 6 29 7 7 2 5 -10 -5 -20 -16 -23 -17 -23 -3 0 8 6 17
13 20 6 2 9 7 6 11 -3 3 -15 -4 -27 -17z"/>
<path d="M850 726 c0 -2 7 -9 15 -16 9 -7 15 -8 15 -2 0 5 -7 12 -15 16 -8 3
-15 4 -15 2z"/>
<path d="M890 721 c0 -5 5 -13 10 -16 6 -3 10 -2 10 4 0 5 -4 13 -10 16 -5 3
-10 2 -10 -4z"/>
<path d="M915 689 c-8 -12 -6 -15 22 -23 12 -4 24 -2 29 5 4 7 3 9 -4 5 -6 -3
-17 1 -26 9 -10 10 -17 12 -21 4z"/>
<path d="M1047 649 c7 -7 15 -10 18 -7 3 3 -2 9 -12 12 -14 6 -15 5 -6 -5z"/>
<path d="M482 1376 c-7 -15 -12 -34 -12 -42 0 -8 -4 -13 -9 -10 -23 15 -40
-88 -22 -137 5 -13 6 -30 1 -37 -6 -9 -18 2 -41 41 l-33 53 -10 -39 c-11 -51
-12 -52 -37 -29 l-22 19 5 -62 c3 -43 10 -69 24 -84 l19 -22 -32 5 c-29 4 -31
3 -22 -20 12 -32 13 -30 -23 -34 l-32 -3 33 -30 c18 -16 44 -46 57 -65 l24
-35 -34 -5 -34 -5 21 -45 c16 -34 33 -50 64 -65 40 -19 62 -45 26 -30 -26 10
-103 19 -103 11 0 -3 18 -23 41 -43 36 -33 38 -37 22 -46 -28 -15 -28 -16 -5
-33 29 -20 28 -28 -4 -40 l-26 -9 40 -25 c22 -14 35 -28 30 -31 -11 -7 52 -49
72 -49 9 0 8 -5 -3 -18 -24 -26 -22 -29 26 -36 51 -8 95 6 120 37 11 14 15 16
11 6 -3 -10 0 -20 7 -25 7 -4 10 -3 6 3 -3 5 0 10 7 10 8 0 12 -6 9 -13 -3 -7
-26 -16 -51 -20 -26 -4 -56 -10 -67 -15 -18 -7 -17 -9 13 -20 38 -16 38 -18
10 -54 l-22 -28 38 7 c26 5 36 4 31 -3 -4 -7 9 -11 36 -11 34 0 39 -2 30 -14
-9 -11 -6 -15 16 -19 34 -7 121 30 158 67 25 25 25 25 72 9 27 -9 52 -19 56
-23 9 -8 -27 -100 -39 -100 -4 0 -4 3 0 7 3 4 -4 13 -16 20 l-23 12 32 13 c17
6 34 20 36 29 4 15 0 15 -42 -3 -54 -23 -71 -42 -71 -77 0 -14 -7 -39 -15 -55
-9 -16 -13 -31 -11 -33 8 -8 36 55 36 82 0 29 2 30 40 10 38 -20 55 -11 75 37
15 39 17 40 53 33 20 -4 40 -12 45 -18 4 -7 6 1 5 17 -3 28 0 31 61 52 l64 22
17 -31 c17 -31 22 -35 75 -58 42 -18 54 -19 82 -8 23 8 24 13 18 46 -6 33 -5
35 10 19 9 -9 22 -17 28 -17 7 -1 22 -3 35 -4 47 -5 65 50 26 81 -8 6 -14 14
-14 17 0 9 31 2 38 -9 8 -11 43 -11 61 0 6 4 11 19 11 34 0 21 7 30 30 39 17
6 30 18 30 26 0 8 9 17 19 20 44 11 14 106 -33 108 -12 1 -3 5 19 10 21 5 49
19 62 31 21 20 21 22 5 44 -9 13 -25 24 -35 24 -30 0 -13 25 19 28 51 5 86 92
38 92 -12 0 -9 9 15 35 38 43 39 56 5 76 -23 14 -24 17 -11 31 16 16 20 29 18
66 -1 18 -7 22 -33 22 -18 0 -28 4 -22 8 17 11 34 48 34 76 0 18 -6 25 -22 28
-22 3 -24 7 -27 57 -1 19 -5 23 -26 19 -21 -5 -25 -2 -25 21 -1 35 -23 63 -44
55 -11 -4 -16 -1 -16 13 0 26 -19 43 -47 43 -14 0 -23 6 -23 15 0 16 -42 30
-65 21 -27 -10 -10 -96 19 -96 8 0 16 -13 18 -31 4 -27 1 -31 -24 -36 -39 -8
-37 -46 3 -102 22 -30 29 -45 21 -53 -12 -12 -5 -36 16 -58 13 -12 12 -15 -6
-23 -17 -8 -20 -16 -15 -38 3 -17 1 -29 -5 -29 -12 0 -4 -38 11 -58 17 -21 16
-55 0 -74 -9 -10 -13 -28 -11 -43 3 -16 1 -25 -7 -25 -13 0 -25 -21 -31 -52
-2 -10 0 -18 5 -18 5 0 11 -7 15 -15 4 -13 2 -13 -14 -5 -22 12 -50 3 -50 -16
0 -8 -5 -14 -11 -14 -7 0 -9 -9 -6 -21 4 -16 3 -18 -8 -9 -15 12 -56 5 -52 -9
1 -5 -11 -20 -26 -35 -24 -22 -34 -25 -68 -20 -32 5 -39 4 -39 -10 0 -9 -5
-16 -11 -16 -6 0 -9 -9 -6 -20 3 -11 2 -20 -3 -20 -11 0 -1 -102 11 -116 6 -8
0 -14 -23 -19 -43 -10 -50 -12 -70 -20 -14 -5 -18 -2 -18 12 0 11 -6 28 -14
38 -13 17 -11 55 3 55 11 0 28 -15 34 -30 3 -8 6 -1 6 16 1 38 -11 44 -84 44
-60 0 -74 -12 -64 -55 5 -22 7 -24 8 -9 0 12 8 25 17 28 15 6 16 0 11 -38 -4
-26 -2 -48 3 -51 6 -3 10 -11 10 -18 0 -6 -17 7 -37 29 -26 27 -32 30 -20 12
23 -36 22 -37 -17 -24 -34 10 -34 10 -38 82 -3 63 -7 75 -35 107 -33 38 -43
38 -43 0 l0 -25 -24 29 c-13 15 -27 38 -30 51 -6 18 -11 21 -21 12 -19 -16
-32 -6 -40 30 l-6 29 -24 -26 -23 -27 -12 59 c-17 82 -29 113 -52 129 -22 15
-38 65 -38 117 0 34 -2 36 -27 31 -23 -4 -25 -2 -19 14 5 10 11 28 14 39 3 11
18 35 34 53 35 41 35 54 1 50 -21 -2 -27 1 -24 12 2 8 6 28 9 43 3 17 15 33
32 42 25 13 39 39 40 72 0 8 -12 10 -36 6 -41 -7 -41 -10 8 62 15 22 31 55 34
73 l7 33 -37 -21 -37 -20 -18 21 -17 21 -12 -26z m1138 -338 c0 -4 -9 -8 -21
-8 -11 0 -18 4 -15 8 3 5 12 9 21 9 8 0 15 -4 15 -9z m-1190 -23 c-7 -9 -15
-13 -17 -11 -7 7 7 26 19 26 6 0 6 -6 -2 -15z m1244 -14 c9 -14 -4 -41 -20
-41 -8 0 -14 10 -14 25 0 25 23 35 34 16z m-45 -33 c0 -31 -1 -31 -10 -10 -5
13 -7 28 -3 33 10 16 14 9 13 -23z m-1199 -3 c0 -12 -19 -12 -23 0 -4 9 -1 12
9 8 7 -3 14 -7 14 -8z m1190 -120 c0 -8 -4 -15 -10 -15 -5 0 -10 7 -10 15 0 8
5 15 10 15 6 0 10 -7 10 -15z m-1201 -23 c8 -14 6 -19 -5 -19 -7 0 -14 9 -14
19 0 10 2 18 5 18 2 0 9 -8 14 -18z m1266 -30 c-8 -9 -25 20 -18 31 3 5 10 2
15 -7 6 -10 7 -20 3 -24z m-30 8 c3 -5 1 -10 -4 -10 -6 0 -11 5 -11 10 0 6 2
10 4 10 3 0 8 -4 11 -10z m-50 -88 c-6 -14 -9 -11 -16 13 -6 20 -5 32 4 37 14
9 22 -25 12 -50z m-1133 -27 c3 -16 1 -22 -6 -19 -6 3 -3 -1 7 -9 9 -8 17 -21
17 -30 0 -20 16 -31 25 -17 13 21 25 9 25 -26 0 -32 2 -35 22 -28 19 6 21 4
12 -7 -6 -8 -13 -20 -16 -28 -3 -10 -16 2 -38 32 -18 25 -36 45 -39 42 -4 -2
-18 5 -31 15 -20 15 -21 18 -7 16 10 -1 23 -9 28 -17 19 -31 7 2 -16 42 -14
24 -25 38 -25 30 0 -8 -3 -11 -7 -7 -8 7 23 36 38 36 4 0 9 -11 11 -25z m1158
10 c-7 -9 -15 -13 -17 -11 -7 7 7 26 19 26 6 0 6 -6 -2 -15z m-65 -15 c-3 -5
-10 -10 -16 -10 -5 0 -9 5 -9 10 0 6 7 10 16 10 8 0 12 -4 9 -10z m-13 -52
c-3 -20 0 -28 8 -26 7 2 15 -3 17 -9 6 -16 -13 -17 -22 -3 -5 8 -12 7 -23 -2
-14 -12 -14 -10 -3 11 9 17 10 26 2 34 -16 16 -13 26 7 24 14 -1 17 -7 14 -29z
m-16 -60 c4 4 4 -2 0 -13 -6 -16 -5 -18 5 -7 19 18 29 15 29 -12 0 -18 -5 -23
-22 -22 -13 1 -32 -2 -43 -7 -19 -10 -19 -9 -2 16 23 36 21 44 -5 21 -12 -10
-18 -14 -15 -7 4 6 2 13 -5 15 -6 2 -8 9 -4 16 4 7 14 8 30 2 13 -5 27 -6 32
-2z m-936 -88 l24 -35 -27 24 c-15 14 -27 31 -27 39 0 9 1 13 3 11 2 -2 14
-20 27 -39z m-55 20 c3 -6 -1 -7 -9 -4 -18 7 -21 14 -7 14 6 0 13 -4 16 -10z
m875 -15 c10 -12 10 -15 -4 -15 -9 0 -16 7 -16 15 0 8 2 15 4 15 2 0 9 -7 16
-15z m-726 -65 c15 -31 9 -39 -12 -18 -11 11 -17 48 -8 48 3 0 11 -13 20 -30z
m726 -5 c0 -8 -7 -15 -15 -15 -16 0 -20 12 -8 23 11 12 23 8 23 -8z m-393 -24
c-4 -17 0 -36 8 -47 15 -20 20 -55 8 -53 -20 3 -23 -3 -13 -21 18 -34 -4 -21
-28 17 l-23 36 20 40 c11 22 18 44 15 49 -3 4 0 8 7 8 7 0 9 -10 6 -29z m-217
-21 c8 12 10 9 10 -12 l0 -27 -42 19 c-24 10 -43 24 -42 30 1 5 2 15 3 22 0 6
15 -1 31 -17 26 -25 32 -27 40 -15z m-114 4 c18 -14 18 -15 -6 -8 -31 8 -50
24 -29 24 8 0 24 -7 35 -16z m549 -23 c-3 -6 -11 -11 -16 -11 -5 0 -4 6 3 14
14 16 24 13 13 -3z m85 2 c0 -13 -9 -18 -30 -19 -36 -1 -39 9 -7 24 31 15 37
14 37 -5z m-470 -24 c0 -14 -17 -10 -23 5 -4 10 -1 13 9 9 7 -3 14 -9 14 -14z
m-80 2 c0 -13 -26 -32 -33 -24 -8 7 11 33 24 33 5 0 9 -4 9 -9z m530 -9 c0
-13 -12 -22 -22 -16 -10 6 -1 24 13 24 5 0 9 -4 9 -8z"/>
<path d="M1000 339 c-7 -13 -9 -21 -5 -17 5 4 14 3 22 -4 19 -15 22 -7 7 21
l-12 23 -12 -23z"/>
<path d="M1089 222 c15 -48 34 -61 61 -44 21 13 30 6 30 -20 0 -24 29 -93 36
-86 3 3 -2 28 -10 54 -8 27 -17 61 -20 77 -4 17 -13 27 -24 27 -10 0 -34 8
-53 18 l-35 18 15 -44z m32 -15 c-1 -12 -15 -9 -19 4 -3 6 1 10 8 8 6 -3 11
-8 11 -12z"/>
<path d="M772 188 c-42 -20 -60 -33 -51 -38 10 -7 8 -15 -6 -37 l-18 -28 29
26 c34 30 84 62 84 54 0 -3 -7 -20 -16 -38 -9 -18 -11 -27 -5 -21 10 9 55 115
48 113 -1 0 -31 -14 -65 -31z"/>
<path d="M1203 185 c23 -70 30 -84 42 -89 9 -3 7 7 -7 30 -26 43 -12 43 47 -1
39 -31 44 -32 30 -11 -9 14 -14 30 -11 35 4 5 -20 22 -52 38 l-58 28 9 -30z"/>
<path d="M1070 205 c0 -5 5 -17 10 -25 5 -8 10 -10 10 -5 0 6 -5 17 -10 25 -5
8 -10 11 -10 5z"/>
</g>
</svg>
